<svg width="2753" height="1967" xmlns="http://www.w3.org/2000/svg" xmlns:xlink="http://www.w3.org/1999/xlink" xml:space="preserve" overflow="hidden"><g transform="translate(-1164 -241)"><rect x="2749" y="242" width="1167" height="625" stroke="#042433" stroke-width="2.29167" stroke-miterlimit="8" fill="#F2F2F2"/><text font-family="Aptos,Aptos_MSFontService,sans-serif" font-weight="400" font-size="55" transform="matrix(1 0 0 1 2783.94 310)">Zone A</text><path d="M2989 331.197C2989 317.833 2999.83 307 3013.2 307L3810.8 307C3824.17 307 3835 317.833 3835 331.197L3835 788.803C3835 802.167 3824.17 813 3810.8 813L3013.2 813C2999.83 813 2989 802.167 2989 788.803Z" stroke="#7F7F7F" stroke-width="2.29167" stroke-miterlimit="8" fill="#D9D9D9" fill-rule="evenodd"/><text fill="#595959" font-family="Aptos,Aptos_MSFontService,sans-serif" font-weight="400" font-size="46" transform="matrix(1 0 0 1 3038.32 365)">Node A</text><path d="M2970.55 412.076 2969.55 412.076 2969.55 411.076 2970.55 411.076Z" stroke="#3A414A" stroke-width="0.0422244" stroke-miterlimit="8" fill="#3A414A" fill-rule="evenodd"/><path d="M2946 393.667C2946 388.88 2949.88 385 2954.67 385L3045.33 385C3050.12 385 3054 388.88 3054 393.667L3054 428.333C3054 433.12 3050.12 437 3045.33 437L2954.67 437C2949.88 437 2946 433.12 2946 428.333Z" stroke="#042433" stroke-width="2.29167" stroke-miterlimit="8" fill="#FFFFFF" fill-rule="evenodd"/><text font-family="Aptos,Aptos_MSFontService,sans-serif" font-weight="400" font-size="37" transform="matrix(1 0 0 1 2961.78 423)">ens3</text><path d="M3224 408.834C3224 398.432 3232.43 390 3242.83 390L3392.17 390C3402.57 390 3411 398.432 3411 408.834L3411 484.166C3411 494.568 3402.57 503 3392.17 503L3242.83 503C3232.43 503 3224 494.568 3224 484.166Z" stroke="#042433" stroke-width="2.29167" stroke-miterlimit="8" fill="#C00000" fill-rule="evenodd" fill-opacity="0.521569"/><text font-family="Aptos,Aptos_MSFontService,sans-serif" font-weight="700" font-size="37" transform="matrix(1 0 0 1 3262.55 458)">TMM A</text><path d="M3107 393.833C3107 388.955 3110.96 385 3115.83 385L3244.17 385C3249.05 385 3253 388.955 3253 393.833L3253 429.166C3253 434.045 3249.05 438 3244.17 438L3115.83 438C3110.96 438 3107 434.045 3107 429.166Z" stroke="#042433" stroke-width="2.29167" stroke-miterlimit="8" fill="#FFFFFF" fill-rule="evenodd"/><text font-family="Aptos,Aptos_MSFontService,sans-serif" font-weight="400" font-size="37" transform="matrix(1 0 0 1 3115.03 423)">External</text><path d="M3107 467C3107 462.029 3111.03 458 3116 458L3244 458C3248.97 458 3253 462.029 3253 467L3253 503C3253 507.97 3248.97 512 3244 512L3116 512C3111.03 512 3107 507.97 3107 503Z" stroke="#042433" stroke-width="2.29167" stroke-miterlimit="8" fill="#FFFFFF" fill-rule="evenodd"/><text font-family="Aptos,Aptos_MSFontService,sans-serif" font-weight="400" font-size="37" transform="matrix(1 0 0 1 3118.47 497)">Internal</text><path d="M3383 467C3383 462.029 3387.03 458 3392 458L3521 458C3525.97 458 3530 462.029 3530 467L3530 503C3530 507.97 3525.97 512 3521 512L3392 512C3387.03 512 3383 507.97 3383 503Z" stroke="#042433" stroke-width="2.29167" stroke-miterlimit="8" fill="#FFFFFF" fill-rule="evenodd"/><text font-family="Aptos,Aptos_MSFontService,sans-serif" font-weight="400" font-size="37" transform="matrix(1 0 0 1 3420.97 497)">eth0</text><path d="M3107 577C3107 572.029 3111.03 568 3116 568L3244 568C3248.97 568 3253 572.029 3253 577L3253 613C3253 617.97 3248.97 622 3244 622L3116 622C3111.03 622 3107 617.97 3107 613Z" stroke="#042433" stroke-width="2.29167" stroke-miterlimit="8" fill="#FFFFFF" fill-rule="evenodd"/><text font-family="Aptos,Aptos_MSFontService,sans-serif" font-weight="400" font-size="37" transform="matrix(1 0 0 1 3109.59 607)">dummy0</text><path d="M3108 675C3108 670.029 3112.03 666 3117 666L3246 666C3250.97 666 3255 670.029 3255 675L3255 711C3255 715.97 3250.97 720 3246 720L3117 720C3112.03 720 3108 715.97 3108 711Z" stroke="#042433" stroke-width="2.29167" stroke-miterlimit="8" fill="#FFFFFF" fill-rule="evenodd"/><text font-family="Aptos,Aptos_MSFontService,sans-serif" font-weight="400" font-size="37" transform="matrix(1 0 0 1 3132.79 705)">shim0</text><path d="M3106.41 412.577 3076.91 412.334 3076.93 410.043 3106.43 410.285ZM3081.39 424.976 3054 411 3081.61 397.477Z"/><path d="M1.14583-7.29078e-06 1.14605 33.8019-1.14562 33.8019-1.14583 7.29078e-06ZM13.7502 29.2185 0.000360892 56.7186-13.7498 29.2187Z" transform="matrix(1 0 0 -1 3180 568.718)"/><path d="M3180.57 666.732 3179.74 644.944 3182.03 644.856 3182.86 666.644ZM3167.32 650.008 3180 622 3194.8 648.951Z"/><path d="M3590 410C3590 399.507 3598.51 391 3609 391L3758 391C3768.49 391 3777 399.507 3777 410L3777 486C3777 496.493 3768.49 505 3758 505L3609 505C3598.51 505 3590 496.493 3590 486Z" stroke="#042433" stroke-width="2.29167" stroke-miterlimit="8" fill="#FFFFFF" fill-rule="evenodd" fill-opacity="0.521569"/><text font-family="Aptos,Aptos_MSFontService,sans-serif" font-weight="700" font-size="37" transform="matrix(1 0 0 1 3634.37 460)">APP A</text><path d="M3564 494.834C3564 489.955 3567.95 486 3572.83 486L3656.17 486C3661.05 486 3665 489.955 3665 494.834L3665 530.166C3665 535.045 3661.05 539 3656.17 539L3572.83 539C3567.95 539 3564 535.045 3564 530.166Z" stroke="#042433" stroke-width="2.29167" stroke-miterlimit="8" fill="#FFFFFF" fill-rule="evenodd"/><text font-family="Aptos,Aptos_MSFontService,sans-serif" font-weight="400" font-size="37" transform="matrix(1 0 0 1 3579.09 525)">eth0</text><path d="M3509 675C3509 670.029 3513.03 666 3518 666L3718 666C3722.97 666 3727 670.029 3727 675L3727 711C3727 715.971 3722.97 720 3718 720L3518 720C3513.03 720 3509 715.971 3509 711Z" stroke="#042433" stroke-width="2.29167" stroke-miterlimit="8" fill="#FFFFFF" fill-rule="evenodd"/><text font-family="Aptos,Aptos_MSFontService,sans-serif" font-weight="400" font-size="37" transform="matrix(1 0 0 1 3516.93 705)">Calico App A</text><path d="M3616.15 538.969 3618.96 643.251 3616.67 643.313 3613.85 539.031ZM3631.44 638.329 3618.44 666.19 3603.95 639.072Z"/><path d="M2801 711.334C2801 703.417 2807.42 697 2815.33 697L2946.67 697C2954.58 697 2961 703.417 2961 711.334L2961 768.667C2961 776.583 2954.58 783 2946.67 783L2815.33 783C2807.42 783 2801 776.583 2801 768.667Z" stroke="#042433" stroke-width="2.29167" stroke-miterlimit="8" fill="#595959" fill-rule="evenodd"/><text fill="#FFFFFF" font-family="Aptos,Aptos_MSFontService,sans-serif" font-weight="400" font-size="41" transform="matrix(1 0 0 1 2835.16 754)">VSI A</text><path d="M3228.5 375.5C3228.5 366.111 3236.33 358.5 3246 358.5 3255.67 358.5 3263.5 366.111 3263.5 375.5 3263.5 384.889 3255.67 392.5 3246 392.5 3236.33 392.5 3228.5 384.889 3228.5 375.5Z" stroke="#FF0000" stroke-width="6.875" stroke-miterlimit="8" fill="#C00000" fill-rule="evenodd"/><text fill="#C00000" font-family="Aptos,Aptos_MSFontService,sans-serif" font-weight="700" font-size="48" transform="matrix(1 0 0 1 3281.09 362)">Self IP Next Hop</text><text font-family="Aptos,Aptos_MSFontService,sans-serif" font-weight="700" font-size="28" transform="matrix(1 0 0 1 3006.09 463)">IPVLAN</text><text font-family="Aptos,Aptos_MSFontService,sans-serif" font-weight="700" font-size="28" transform="matrix(1 0 0 1 3210.05 550)">MACVLAN</text><text font-family="Aptos,Aptos_MSFontService,sans-serif" font-weight="700" font-size="28" transform="matrix(1 0 0 1 2818.87 470)">VPC Single</text><text font-family="Aptos,Aptos_MSFontService,sans-serif" font-weight="700" font-size="28" transform="matrix(1 0 0 1 2818.87 503)">NIC Subnet</text><text font-family="Aptos,Aptos_MSFontService,sans-serif" font-weight="700" font-size="28" transform="matrix(1 0 0 1 2818.87 536)">Address</text><path d="M2917.5 409C2917.5 399.335 2925.33 391.5 2935 391.5 2944.67 391.5 2952.5 399.335 2952.5 409 2952.5 418.665 2944.67 426.5 2935 426.5 2925.33 426.5 2917.5 418.665 2917.5 409Z" stroke="#000000" stroke-width="6.875" stroke-miterlimit="8" fill="#F2F2F2" fill-rule="evenodd"/><path d="M2717.42 406.062 2895.33 406.063 2895.33 412.938 2717.42 412.937ZM2722 423.25 2694.5 409.5 2722 395.75ZM2890.74 395.75 2918.24 409.5 2890.74 423.25Z"/><text font-family="Aptos,Aptos_MSFontService,sans-serif" font-weight="700" font-size="46" transform="matrix(1 0 0 1 3344.96 776)">f5</text><text font-family="Aptos,Aptos_MSFontService,sans-serif" font-weight="700" font-size="46" transform="matrix(1 0 0 1 3385.06 776)">-</text><text font-family="Aptos,Aptos_MSFontService,sans-serif" font-weight="700" font-size="46" transform="matrix(1 0 0 1 3400.53 776)">tmm</text><path d="M2389.5 409C2389.5 324.776 2457.78 256.5 2542 256.5 2626.22 256.5 2694.5 324.776 2694.5 409 2694.5 493.223 2626.22 561.5 2542 561.5 2457.78 561.5 2389.5 493.223 2389.5 409Z" stroke="#042433" stroke-width="6.875" stroke-miterlimit="8" fill="#D9D9D9" fill-rule="evenodd"/><text font-family="Aptos,Aptos_MSFontService,sans-serif" font-weight="400" font-size="64" transform="matrix(1 0 0 1 2481.44 391)">VPC</text><text font-family="Aptos,Aptos_MSFontService,sans-serif" font-weight="400" font-size="64" transform="matrix(1 0 0 1 2448.37 468)">Router</text><rect x="2749" y="911" width="1167" height="626" stroke="#042433" stroke-width="2.29167" stroke-miterlimit="8" fill="#F2F2F2"/><text font-family="Aptos,Aptos_MSFontService,sans-serif" font-weight="400" font-size="55" transform="matrix(1 0 0 1 2783.94 980)">Zone </text><text font-family="Aptos,Aptos_MSFontService,sans-serif" font-weight="400" font-size="55" transform="matrix(1 0 0 1 2913.99 980)">B</text><path d="M2989 1001.2C2989 987.833 2999.83 977 3013.2 977L3810.8 977C3824.17 977 3835 987.833 3835 1001.2L3835 1458.8C3835 1472.17 3824.17 1483 3810.8 1483L3013.2 1483C2999.83 1483 2989 1472.17 2989 1458.8Z" stroke="#7F7F7F" stroke-width="2.29167" stroke-miterlimit="8" fill="#D9D9D9" fill-rule="evenodd"/><text fill="#595959" font-family="Aptos,Aptos_MSFontService,sans-serif" font-weight="400" font-size="46" transform="matrix(1 0 0 1 3038.32 1034)">Node </text><text fill="#595959" font-family="Aptos,Aptos_MSFontService,sans-serif" font-weight="400" font-size="46" transform="matrix(1 0 0 1 3154.62 1034)">B</text><path d="M2970.55 1081.08 2969.55 1081.08 2969.55 1080.08 2970.55 1080.08Z" stroke="#3A414A" stroke-width="0.0422244" stroke-miterlimit="8" fill="#3A414A" fill-rule="evenodd"/><path d="M2946 1062.67C2946 1057.88 2949.88 1054 2954.67 1054L3045.33 1054C3050.12 1054 3054 1057.88 3054 1062.67L3054 1097.33C3054 1102.12 3050.12 1106 3045.33 1106L2954.67 1106C2949.88 1106 2946 1102.12 2946 1097.33Z" stroke="#042433" stroke-width="2.29167" stroke-miterlimit="8" fill="#FFFFFF" fill-rule="evenodd"/><text font-family="Aptos,Aptos_MSFontService,sans-serif" font-weight="400" font-size="37" transform="matrix(1 0 0 1 2961.78 1092)">ens3</text><path d="M3224 1078C3224 1067.51 3232.51 1059 3243 1059L3392 1059C3402.49 1059 3411 1067.51 3411 1078L3411 1154C3411 1164.49 3402.49 1173 3392 1173L3243 1173C3232.51 1173 3224 1164.49 3224 1154Z" stroke="#042433" stroke-width="2.29167" stroke-miterlimit="8" fill="#C00000" fill-rule="evenodd" fill-opacity="0.521569"/><text font-family="Aptos,Aptos_MSFontService,sans-serif" font-weight="700" font-size="37" transform="matrix(1 0 0 1 3262.55 1128)">TMM A</text><path d="M3107 1062.83C3107 1057.95 3110.96 1054 3115.83 1054L3244.17 1054C3249.05 1054 3253 1057.95 3253 1062.83L3253 1098.17C3253 1103.04 3249.05 1107 3244.17 1107L3115.83 1107C3110.96 1107 3107 1103.04 3107 1098.17Z" stroke="#042433" stroke-width="2.29167" stroke-miterlimit="8" fill="#FFFFFF" fill-rule="evenodd"/><text font-family="Aptos,Aptos_MSFontService,sans-serif" font-weight="400" font-size="37" transform="matrix(1 0 0 1 3115.03 1093)">External</text><path d="M3107 1136.83C3107 1131.95 3110.96 1128 3115.83 1128L3244.17 1128C3249.04 1128 3253 1131.95 3253 1136.83L3253 1172.17C3253 1177.05 3249.04 1181 3244.17 1181L3115.83 1181C3110.96 1181 3107 1177.05 3107 1172.17Z" stroke="#042433" stroke-width="2.29167" stroke-miterlimit="8" fill="#FFFFFF" fill-rule="evenodd"/><text font-family="Aptos,Aptos_MSFontService,sans-serif" font-weight="400" font-size="37" transform="matrix(1 0 0 1 3118.47 1167)">Internal</text><path d="M3383 1136.83C3383 1131.95 3386.95 1128 3391.83 1128L3521.17 1128C3526.04 1128 3530 1131.95 3530 1136.83L3530 1172.17C3530 1177.05 3526.04 1181 3521.17 1181L3391.83 1181C3386.95 1181 3383 1177.05 3383 1172.17Z" stroke="#042433" stroke-width="2.29167" stroke-miterlimit="8" fill="#FFFFFF" fill-rule="evenodd"/><text font-family="Aptos,Aptos_MSFontService,sans-serif" font-weight="400" font-size="37" transform="matrix(1 0 0 1 3420.97 1167)">eth0</text><path d="M3107 1246.83C3107 1241.95 3110.96 1238 3115.83 1238L3244.17 1238C3249.04 1238 3253 1241.95 3253 1246.83L3253 1282.17C3253 1287.05 3249.04 1291 3244.17 1291L3115.83 1291C3110.96 1291 3107 1287.05 3107 1282.17Z" stroke="#042433" stroke-width="2.29167" stroke-miterlimit="8" fill="#FFFFFF" fill-rule="evenodd"/><text font-family="Aptos,Aptos_MSFontService,sans-serif" font-weight="400" font-size="37" transform="matrix(1 0 0 1 3109.59 1277)">dummy0</text><path d="M3108 1344.83C3108 1339.96 3111.95 1336 3116.83 1336L3246.17 1336C3251.04 1336 3255 1339.96 3255 1344.83L3255 1380.17C3255 1385.05 3251.04 1389 3246.17 1389L3116.83 1389C3111.95 1389 3108 1385.05 3108 1380.17Z" stroke="#042433" stroke-width="2.29167" stroke-miterlimit="8" fill="#FFFFFF" fill-rule="evenodd"/><text font-family="Aptos,Aptos_MSFontService,sans-serif" font-weight="400" font-size="37" transform="matrix(1 0 0 1 3132.79 1375)">shim0</text><path d="M3106.41 1081.58 3076.91 1081.33 3076.93 1079.04 3106.43 1079.29ZM3081.39 1093.98 3054 1080 3081.61 1066.48Z"/><path d="M1.14583-7.29078e-06 1.14605 33.8019-1.14562 33.8019-1.14583 7.29078e-06ZM13.7502 29.2185 0.000360892 56.7186-13.7498 29.2187Z" transform="matrix(1 0 0 -1 3180 1237.72)"/><path d="M3180.57 1335.73 3179.74 1313.94 3182.03 1313.86 3182.86 1335.64ZM3167.32 1319.01 3180 1291 3194.8 1317.95Z"/><path d="M3590 1079.83C3590 1069.43 3598.43 1061 3608.83 1061L3758.17 1061C3768.57 1061 3777 1069.43 3777 1079.83L3777 1155.17C3777 1165.57 3768.57 1174 3758.17 1174L3608.83 1174C3598.43 1174 3590 1165.57 3590 1155.17Z" stroke="#042433" stroke-width="2.29167" stroke-miterlimit="8" fill="#FFFFFF" fill-rule="evenodd" fill-opacity="0.521569"/><text font-family="Aptos,Aptos_MSFontService,sans-serif" font-weight="700" font-size="37" transform="matrix(1 0 0 1 3634.37 1130)">APP A</text><path d="M3564 1164C3564 1159.03 3568.03 1155 3573 1155L3656 1155C3660.97 1155 3665 1159.03 3665 1164L3665 1200C3665 1204.97 3660.97 1209 3656 1209L3573 1209C3568.03 1209 3564 1204.97 3564 1200Z" stroke="#042433" stroke-width="2.29167" stroke-miterlimit="8" fill="#FFFFFF" fill-rule="evenodd"/><text font-family="Aptos,Aptos_MSFontService,sans-serif" font-weight="400" font-size="37" transform="matrix(1 0 0 1 3579.09 1194)">eth0</text><path d="M3509 1344.83C3509 1339.95 3512.95 1336 3517.83 1336L3718.17 1336C3723.04 1336 3727 1339.95 3727 1344.83L3727 1380.17C3727 1385.05 3723.04 1389 3718.17 1389L3517.83 1389C3512.95 1389 3509 1385.05 3509 1380.17Z" stroke="#042433" stroke-width="2.29167" stroke-miterlimit="8" fill="#FFFFFF" fill-rule="evenodd"/><text font-family="Aptos,Aptos_MSFontService,sans-serif" font-weight="400" font-size="37" transform="matrix(1 0 0 1 3516.93 1375)">Calico App A</text><path d="M3616.15 1208.97 3618.96 1313.25 3616.67 1313.31 3613.85 1209.03ZM3631.44 1308.33 3618.44 1336.19 3603.95 1309.07Z"/><path d="M2801 1381.33C2801 1373.42 2807.42 1367 2815.33 1367L2946.67 1367C2954.58 1367 2961 1373.42 2961 1381.33L2961 1438.67C2961 1446.58 2954.58 1453 2946.67 1453L2815.33 1453C2807.42 1453 2801 1446.58 2801 1438.67Z" stroke="#042433" stroke-width="2.29167" stroke-miterlimit="8" fill="#595959" fill-rule="evenodd"/><text fill="#FFFFFF" font-family="Aptos,Aptos_MSFontService,sans-serif" font-weight="400" font-size="41" transform="matrix(1 0 0 1 2834.88 1423)">VSI </text><text fill="#FFFFFF" font-family="Aptos,Aptos_MSFontService,sans-serif" font-weight="400" font-size="41" transform="matrix(1 0 0 1 2901.91 1423)">B</text><path d="M3228.5 1045C3228.5 1035.34 3236.33 1027.5 3246 1027.5 3255.67 1027.5 3263.5 1035.34 3263.5 1045 3263.5 1054.67 3255.67 1062.5 3246 1062.5 3236.33 1062.5 3228.5 1054.67 3228.5 1045Z" stroke="#FF0000" stroke-width="6.875" stroke-miterlimit="8" fill="#C00000" fill-rule="evenodd"/><text fill="#C00000" font-family="Aptos,Aptos_MSFontService,sans-serif" font-weight="700" font-size="48" transform="matrix(1 0 0 1 3281.09 1032)">Self IP Next Hop</text><text font-family="Aptos,Aptos_MSFontService,sans-serif" font-weight="700" font-size="28" transform="matrix(1 0 0 1 3006.09 1132)">IPVLAN</text><text font-family="Aptos,Aptos_MSFontService,sans-serif" font-weight="700" font-size="28" transform="matrix(1 0 0 1 3210.05 1219)">MACVLAN</text><text font-family="Aptos,Aptos_MSFontService,sans-serif" font-weight="700" font-size="28" transform="matrix(1 0 0 1 2818.87 1139)">VPC Single</text><text font-family="Aptos,Aptos_MSFontService,sans-serif" font-weight="700" font-size="28" transform="matrix(1 0 0 1 2818.87 1172)">NIC Subnet</text><text font-family="Aptos,Aptos_MSFontService,sans-serif" font-weight="700" font-size="28" transform="matrix(1 0 0 1 2818.87 1205)">Address</text><path d="M2917.5 1078.5C2917.5 1069.11 2925.33 1061.5 2935 1061.5 2944.67 1061.5 2952.5 1069.11 2952.5 1078.5 2952.5 1087.89 2944.67 1095.5 2935 1095.5 2925.33 1095.5 2917.5 1087.89 2917.5 1078.5Z" stroke="#000000" stroke-width="6.875" stroke-miterlimit="8" fill="#F2F2F2" fill-rule="evenodd"/><path d="M2717.42 1075.06 2895.33 1075.06 2895.33 1081.94 2717.42 1081.94ZM2722 1092.25 2694.5 1078.5 2722 1064.75ZM2890.74 1064.75 2918.24 1078.5 2890.74 1092.25Z"/><text font-family="Aptos,Aptos_MSFontService,sans-serif" font-weight="700" font-size="46" transform="matrix(1 0 0 1 3344.96 1445)">f5</text><text font-family="Aptos,Aptos_MSFontService,sans-serif" font-weight="700" font-size="46" transform="matrix(1 0 0 1 3385.06 1445)">-</text><text font-family="Aptos,Aptos_MSFontService,sans-serif" font-weight="700" font-size="46" transform="matrix(1 0 0 1 3400.53 1445)">tmm</text><path d="M2389.5 1078.5C2389.5 994.553 2457.78 926.5 2542 926.5 2626.22 926.5 2694.5 994.553 2694.5 1078.5 2694.5 1162.45 2626.22 1230.5 2542 1230.5 2457.78 1230.5 2389.5 1162.45 2389.5 1078.5Z" stroke="#042433" stroke-width="6.875" stroke-miterlimit="8" fill="#D9D9D9" fill-rule="evenodd"/><text font-family="Aptos,Aptos_MSFontService,sans-serif" font-weight="400" font-size="64" transform="matrix(1 0 0 1 2481.44 1060)">VPC</text><text font-family="Aptos,Aptos_MSFontService,sans-serif" font-weight="400" font-size="64" transform="matrix(1 0 0 1 2448.37 1137)">Router</text><rect x="2749" y="1581" width="1167" height="626" stroke="#042433" stroke-width="2.29167" stroke-miterlimit="8" fill="#F2F2F2"/><text font-family="Aptos,Aptos_MSFontService,sans-serif" font-weight="400" font-size="55" transform="matrix(1 0 0 1 2783.94 1650)">Zone </text><text font-family="Aptos,Aptos_MSFontService,sans-serif" font-weight="400" font-size="55" transform="matrix(1 0 0 1 2913.99 1650)">C</text><path d="M2989 1670.2C2989 1656.83 2999.83 1646 3013.2 1646L3810.8 1646C3824.17 1646 3835 1656.83 3835 1670.2L3835 2127.8C3835 2141.17 3824.17 2152 3810.8 2152L3013.2 2152C2999.83 2152 2989 2141.17 2989 2127.8Z" stroke="#7F7F7F" stroke-width="2.29167" stroke-miterlimit="8" fill="#D9D9D9" fill-rule="evenodd"/><text fill="#595959" font-family="Aptos,Aptos_MSFontService,sans-serif" font-weight="400" font-size="46" transform="matrix(1 0 0 1 3038.32 1704)">Node </text><text fill="#595959" font-family="Aptos,Aptos_MSFontService,sans-serif" font-weight="400" font-size="46" transform="matrix(1 0 0 1 3154.62 1704)">C</text><path d="M2970.55 1751.08 2969.55 1751.08 2969.55 1750.08 2970.55 1750.08Z" stroke="#3A414A" stroke-width="0.0422244" stroke-miterlimit="8" fill="#3A414A" fill-rule="evenodd"/><path d="M2946 1732.67C2946 1727.88 2949.88 1724 2954.67 1724L3045.33 1724C3050.12 1724 3054 1727.88 3054 1732.67L3054 1767.33C3054 1772.12 3050.12 1776 3045.33 1776L2954.67 1776C2949.88 1776 2946 1772.12 2946 1767.33Z" stroke="#042433" stroke-width="2.29167" stroke-miterlimit="8" fill="#FFFFFF" fill-rule="evenodd"/><text font-family="Aptos,Aptos_MSFontService,sans-serif" font-weight="400" font-size="37" transform="matrix(1 0 0 1 2961.78 1762)">ens3</text><path d="M3224 1747.83C3224 1737.43 3232.43 1729 3242.83 1729L3392.17 1729C3402.57 1729 3411 1737.43 3411 1747.83L3411 1823.17C3411 1833.57 3402.57 1842 3392.17 1842L3242.83 1842C3232.43 1842 3224 1833.57 3224 1823.17Z" stroke="#042433" stroke-width="2.29167" stroke-miterlimit="8" fill="#C00000" fill-rule="evenodd" fill-opacity="0.521569"/><text font-family="Aptos,Aptos_MSFontService,sans-serif" font-weight="700" font-size="37" transform="matrix(1 0 0 1 3262.55 1798)">TMM A</text><path d="M3107 1732.83C3107 1727.95 3110.96 1724 3115.83 1724L3244.17 1724C3249.05 1724 3253 1727.95 3253 1732.83L3253 1768.17C3253 1773.04 3249.05 1777 3244.17 1777L3115.83 1777C3110.96 1777 3107 1773.04 3107 1768.17Z" stroke="#042433" stroke-width="2.29167" stroke-miterlimit="8" fill="#FFFFFF" fill-rule="evenodd"/><text font-family="Aptos,Aptos_MSFontService,sans-serif" font-weight="400" font-size="37" transform="matrix(1 0 0 1 3115.03 1762)">External</text><path d="M3107 1806.83C3107 1801.95 3110.96 1798 3115.83 1798L3244.17 1798C3249.05 1798 3253 1801.95 3253 1806.83L3253 1842.17C3253 1847.05 3249.05 1851 3244.17 1851L3115.83 1851C3110.96 1851 3107 1847.05 3107 1842.17Z" stroke="#042433" stroke-width="2.29167" stroke-miterlimit="8" fill="#FFFFFF" fill-rule="evenodd"/><text font-family="Aptos,Aptos_MSFontService,sans-serif" font-weight="400" font-size="37" transform="matrix(1 0 0 1 3118.47 1836)">Internal</text><path d="M3383 1806.83C3383 1801.96 3386.95 1798 3391.83 1798L3521.17 1798C3526.04 1798 3530 1801.96 3530 1806.83L3530 1842.17C3530 1847.05 3526.04 1851 3521.17 1851L3391.83 1851C3386.95 1851 3383 1847.05 3383 1842.17Z" stroke="#042433" stroke-width="2.29167" stroke-miterlimit="8" fill="#FFFFFF" fill-rule="evenodd"/><text font-family="Aptos,Aptos_MSFontService,sans-serif" font-weight="400" font-size="37" transform="matrix(1 0 0 1 3420.97 1836)">eth0</text><path d="M3107 1916.83C3107 1911.95 3110.96 1908 3115.83 1908L3244.17 1908C3249.05 1908 3253 1911.95 3253 1916.83L3253 1952.17C3253 1957.05 3249.05 1961 3244.17 1961L3115.83 1961C3110.96 1961 3107 1957.05 3107 1952.17Z" stroke="#042433" stroke-width="2.29167" stroke-miterlimit="8" fill="#FFFFFF" fill-rule="evenodd"/><text font-family="Aptos,Aptos_MSFontService,sans-serif" font-weight="400" font-size="37" transform="matrix(1 0 0 1 3109.59 1946)">dummy0</text><path d="M3108 2014.83C3108 2009.96 3111.95 2006 3116.83 2006L3246.17 2006C3251.04 2006 3255 2009.96 3255 2014.83L3255 2050.17C3255 2055.05 3251.04 2059 3246.17 2059L3116.83 2059C3111.95 2059 3108 2055.05 3108 2050.17Z" stroke="#042433" stroke-width="2.29167" stroke-miterlimit="8" fill="#FFFFFF" fill-rule="evenodd"/><text font-family="Aptos,Aptos_MSFontService,sans-serif" font-weight="400" font-size="37" transform="matrix(1 0 0 1 3132.79 2044)">shim0</text><path d="M3106.41 1751.58 3076.91 1751.33 3076.93 1749.04 3106.43 1749.29ZM3081.39 1763.98 3054 1750 3081.61 1736.48Z"/><path d="M1.14583-7.29078e-06 1.14605 33.8019-1.14562 33.8019-1.14583 7.29078e-06ZM13.7502 29.2185 0.000360892 56.7186-13.7498 29.2187Z" transform="matrix(1 0 0 -1 3180 1907.72)"/><path d="M3180.57 2005.73 3179.74 1983.94 3182.03 1983.86 3182.86 2005.64ZM3167.32 1989.01 3180 1961 3194.8 1987.95Z"/><path d="M3590 1749.83C3590 1739.43 3598.43 1731 3608.83 1731L3758.17 1731C3768.57 1731 3777 1739.43 3777 1749.83L3777 1825.17C3777 1835.57 3768.57 1844 3758.17 1844L3608.83 1844C3598.43 1844 3590 1835.57 3590 1825.17Z" stroke="#042433" stroke-width="2.29167" stroke-miterlimit="8" fill="#FFFFFF" fill-rule="evenodd" fill-opacity="0.521569"/><text font-family="Aptos,Aptos_MSFontService,sans-serif" font-weight="700" font-size="37" transform="matrix(1 0 0 1 3634.37 1799)">APP A</text><path d="M3564 1833.83C3564 1828.95 3567.95 1825 3572.83 1825L3656.17 1825C3661.05 1825 3665 1828.95 3665 1833.83L3665 1869.17C3665 1874.05 3661.05 1878 3656.17 1878L3572.83 1878C3567.95 1878 3564 1874.05 3564 1869.17Z" stroke="#042433" stroke-width="2.29167" stroke-miterlimit="8" fill="#FFFFFF" fill-rule="evenodd"/><text font-family="Aptos,Aptos_MSFontService,sans-serif" font-weight="400" font-size="37" transform="matrix(1 0 0 1 3579.09 1864)">eth0</text><path d="M3509 2014.83C3509 2009.95 3512.95 2006 3517.83 2006L3718.17 2006C3723.04 2006 3727 2009.95 3727 2014.83L3727 2050.17C3727 2055.05 3723.04 2059 3718.17 2059L3517.83 2059C3512.95 2059 3509 2055.05 3509 2050.17Z" stroke="#042433" stroke-width="2.29167" stroke-miterlimit="8" fill="#FFFFFF" fill-rule="evenodd"/><text font-family="Aptos,Aptos_MSFontService,sans-serif" font-weight="400" font-size="37" transform="matrix(1 0 0 1 3516.93 2044)">Calico App A</text><path d="M3616.15 1877.97 3618.96 1982.25 3616.67 1982.31 3613.85 1878.03ZM3631.44 1977.33 3618.44 2005.19 3603.95 1978.07Z"/><path d="M2801 2050.33C2801 2042.42 2807.42 2036 2815.33 2036L2946.67 2036C2954.58 2036 2961 2042.42 2961 2050.33L2961 2107.67C2961 2115.58 2954.58 2122 2946.67 2122L2815.33 2122C2807.42 2122 2801 2115.58 2801 2107.67Z" stroke="#042433" stroke-width="2.29167" stroke-miterlimit="8" fill="#595959" fill-rule="evenodd"/><text fill="#FFFFFF" font-family="Aptos,Aptos_MSFontService,sans-serif" font-weight="400" font-size="41" transform="matrix(1 0 0 1 2832.87 2093)">VSI </text><text fill="#FFFFFF" font-family="Aptos,Aptos_MSFontService,sans-serif" font-weight="400" font-size="41" transform="matrix(1 0 0 1 2899.9 2093)">C</text><path d="M3228.5 1714.5C3228.5 1705.11 3236.33 1697.5 3246 1697.5 3255.67 1697.5 3263.5 1705.11 3263.5 1714.5 3263.5 1723.89 3255.67 1731.5 3246 1731.5 3236.33 1731.5 3228.5 1723.89 3228.5 1714.5Z" stroke="#FF0000" stroke-width="6.875" stroke-miterlimit="8" fill="#C00000" fill-rule="evenodd"/><text fill="#C00000" font-family="Aptos,Aptos_MSFontService,sans-serif" font-weight="700" font-size="48" transform="matrix(1 0 0 1 3281.09 1702)">Self IP Next Hop</text><text font-family="Aptos,Aptos_MSFontService,sans-serif" font-weight="700" font-size="28" transform="matrix(1 0 0 1 3006.09 1802)">IPVLAN</text><text font-family="Aptos,Aptos_MSFontService,sans-serif" font-weight="700" font-size="28" transform="matrix(1 0 0 1 3210.05 1889)">MACVLAN</text><text font-family="Aptos,Aptos_MSFontService,sans-serif" font-weight="700" font-size="28" transform="matrix(1 0 0 1 2818.87 1809)">VPC Single</text><text font-family="Aptos,Aptos_MSFontService,sans-serif" font-weight="700" font-size="28" transform="matrix(1 0 0 1 2818.87 1842)">NIC Subnet</text><text font-family="Aptos,Aptos_MSFontService,sans-serif" font-weight="700" font-size="28" transform="matrix(1 0 0 1 2818.87 1875)">Address</text><path d="M2917.5 1748C2917.5 1738.33 2925.33 1730.5 2935 1730.5 2944.67 1730.5 2952.5 1738.33 2952.5 1748 2952.5 1757.66 2944.67 1765.5 2935 1765.5 2925.33 1765.5 2917.5 1757.66 2917.5 1748Z" stroke="#000000" stroke-width="6.875" stroke-miterlimit="8" fill="#F2F2F2" fill-rule="evenodd"/><path d="M2717.42 1745.06 2895.33 1745.06 2895.33 1751.94 2717.42 1751.94ZM2722 1762.25 2694.5 1748.5 2722 1734.75ZM2890.74 1734.75 2918.24 1748.5 2890.74 1762.25Z"/><text font-family="Aptos,Aptos_MSFontService,sans-serif" font-weight="700" font-size="46" transform="matrix(1 0 0 1 3344.96 2115)">f5</text><text font-family="Aptos,Aptos_MSFontService,sans-serif" font-weight="700" font-size="46" transform="matrix(1 0 0 1 3385.06 2115)">-</text><text font-family="Aptos,Aptos_MSFontService,sans-serif" font-weight="700" font-size="46" transform="matrix(1 0 0 1 3400.53 2115)">tmm</text><path d="M2389.5 1748C2389.5 1663.78 2457.78 1595.5 2542 1595.5 2626.22 1595.5 2694.5 1663.78 2694.5 1748 2694.5 1832.22 2626.22 1900.5 2542 1900.5 2457.78 1900.5 2389.5 1832.22 2389.5 1748Z" stroke="#042433" stroke-width="6.875" stroke-miterlimit="8" fill="#D9D9D9" fill-rule="evenodd"/><text font-family="Aptos,Aptos_MSFontService,sans-serif" font-weight="400" font-size="64" transform="matrix(1 0 0 1 2481.44 1730)">VPC</text><text font-family="Aptos,Aptos_MSFontService,sans-serif" font-weight="400" font-size="64" transform="matrix(1 0 0 1 2448.37 1807)">Router</text><path d="M1896.5 1073.5C1896.5 982.373 1970.37 908.5 2061.5 908.5 2152.63 908.5 2226.5 982.373 2226.5 1073.5 2226.5 1164.63 2152.63 1238.5 2061.5 1238.5 1970.37 1238.5 1896.5 1164.63 1896.5 1073.5Z" stroke="#042433" stroke-width="6.875" stroke-miterlimit="8" fill="#D9D9D9" fill-rule="evenodd"/><text font-family="Aptos,Aptos_MSFontService,sans-serif" font-weight="700" font-size="64" transform="matrix(1 0 0 1 1993.06 1093)">TGW</text><path d="M3.20753-1.23618 205.903 524.699 199.488 527.172-3.20753 1.23618ZM213.877 516.714 210.936 547.319 188.217 526.603Z" transform="matrix(1 0 0 -1 2178.5 956.818)"/><path d="M2226.62 1070.06 2366.32 1074.85 2366.09 1081.72 2226.38 1076.94ZM2362.1 1064.39 2389.11 1079.07 2361.15 1091.87Z"/><path d="M2181.72 1188.29 2384.55 1725.31 2378.12 1727.74 2175.28 1190.71ZM2392.58 1717.38 2389.44 1747.97 2366.86 1727.1Z"/><path d="M1167.5 276.008C1167.5 262.473 1178.47 251.5 1192.01 251.5L1582.99 251.5C1596.53 251.5 1607.5 262.473 1607.5 276.008L1607.5 554.992C1607.5 568.527 1596.53 579.5 1582.99 579.5L1192.01 579.5C1178.47 579.5 1167.5 568.527 1167.5 554.992Z" stroke="#042433" stroke-width="6.875" stroke-miterlimit="8" fill="#D9D9D9" fill-rule="evenodd"/><text font-family="Aptos,Aptos_MSFontService,sans-serif" font-weight="700" font-size="50" transform="matrix(1 0 0 1 1224.36 322)">BIG</text><text font-family="Aptos,Aptos_MSFontService,sans-serif" font-weight="700" font-size="50" transform="matrix(1 0 0 1 1306.29 322)">-</text><text font-family="Aptos,Aptos_MSFontService,sans-serif" font-weight="700" font-size="50" transform="matrix(1 0 0 1 1323.48 322)">IP VE VPC</text><g><g><g><path d="M217.029 85.7143C217.029 123.585 186.328 154.286 148.457 154.286 110.586 154.286 79.8857 123.585 79.8857 85.7143 79.8857 47.8433 110.586 17.1429 148.457 17.1429 186.328 17.1429 217.029 47.8433 217.029 85.7143Z" fill="#63218E" transform="matrix(1.00239 0 0 1 1237 338)"/><path d="M57.9429 204.686 57.9429 179.657 69.2571 179.657C73.7143 179.657 76.4571 182.4 76.4571 186.171 76.4571 189.257 74.4 191.314 72 192 74.7429 192.343 76.8 195.086 76.8 198.171 76.8 202.286 74.0571 205.029 69.6 205.029L57.9429 205.029 57.9429 204.686ZM61.0286 190.286 68.5714 190.286C71.3143 190.286 73.0286 188.571 73.0286 186.171 73.0286 183.771 71.6571 182.057 68.5714 182.057L61.0286 182.057 61.0286 190.286ZM61.0286 201.943 68.5714 201.943C71.6571 201.943 73.3714 200.229 73.3714 197.486 73.3714 195.086 71.6571 193.029 68.5714 193.029L61.0286 193.029 61.0286 201.943Z" transform="matrix(1.00239 0 0 1 1237 338)"/><path d="M81.6 204.686 81.6 179.657 84.6857 179.657 84.6857 204.686 81.6 204.686Z" transform="matrix(1.00239 0 0 1 1237 338)"/><path d="M102.514 178.971C106.971 178.971 110.057 181.029 112.114 183.771L110.057 185.143C108.343 183.086 105.943 181.714 102.857 181.714 97.3714 181.714 93.2571 185.829 93.2571 192 93.2571 197.829 97.3714 202.286 102.857 202.286 105.943 202.286 108.343 200.914 109.714 199.543L109.714 194.4 101.143 194.4 101.143 191.657 112.8 191.657 112.8 200.914C110.4 203.657 106.971 205.371 102.857 205.371 95.6571 205.371 89.8286 200.229 89.8286 192.343 89.8286 184.457 95.3143 178.971 102.514 178.971Z" transform="matrix(1.00239 0 0 1 1237 338)"/><path d="M115.886 196.8 115.886 194.4 124.8 194.4 124.8 196.8 115.886 196.8Z" transform="matrix(1.00239 0 0 1 1237 338)"/><path d="M128.914 204.686 128.914 179.657 132 179.657 132 204.686 128.914 204.686Z" transform="matrix(1.00239 0 0 1 1237 338)"/><path d="M137.829 204.686 137.829 179.657 147.771 179.657C152.914 179.657 155.657 183.086 155.657 187.2 155.657 191.314 152.914 194.743 147.771 194.743L140.914 194.743 140.914 204.686C140.914 204.686 137.829 204.686 137.829 204.686ZM147.771 182.057 141.257 182.057 141.257 191.657 147.771 191.657C150.857 191.657 152.914 189.6 152.914 186.857 152.914 184.114 150.514 182.057 147.771 182.057Z" transform="matrix(1.00239 0 0 1 1237 338)"/><path d="M169.714 204.686 169.714 179.657 178.286 179.657C186.171 179.657 191.314 185.143 191.314 192.343 191.314 199.543 186.171 205.029 178.286 205.029L169.714 205.029 169.714 204.686ZM172.8 201.943 178.286 201.943C184.457 201.943 187.886 197.486 187.886 192.343 187.886 186.857 184.457 182.4 178.286 182.4L172.8 182.4 172.8 201.943Z" transform="matrix(1.00239 0 0 1 1237 338)"/><path d="M213.943 204.686 199.2 184.457 199.2 204.686 196.114 204.686 196.114 179.657 199.2 179.657 213.6 199.543 213.6 179.657 216.686 179.657 216.686 204.686 213.943 204.686Z" transform="matrix(1.00239 0 0 1 1237 338)"/><path d="M223.2 198.514C224.914 200.229 227.657 201.943 231.086 201.943 235.543 201.943 236.914 199.543 236.914 197.486 236.914 194.4 233.829 193.714 230.4 192.686 226.286 191.657 221.829 190.629 221.829 185.486 221.829 181.371 225.6 178.629 230.4 178.629 234.171 178.629 237.257 180 239.314 182.057L237.6 184.457C235.886 182.4 233.143 181.371 230.4 181.371 227.314 181.371 225.257 183.086 225.257 185.486 225.257 187.886 228 188.914 231.429 189.6 235.543 190.629 240.343 192 240.343 197.143 240.343 200.914 237.943 204.686 231.086 204.686 226.629 204.686 223.543 202.971 221.486 200.571L223.2 198.514Z" transform="matrix(1.00239 0 0 1 1237 338)"/><path d="M196.457 86.0571C196.457 72.3429 190.629 60 181.371 51.0857L181.371 51.0857C181.371 50.7429 181.029 50.7429 180.686 50.4 173.143 43.5429 163.543 39.0857 152.571 38.0571 151.543 37.7143 150.171 37.7143 148.8 37.7143 138.514 37.7143 128.571 40.8 120.343 46.9714 111.429 53.4857 104.914 63.0857 102.171 73.7143 101.143 77.4857 100.8 81.6 100.8 85.3714 100.8 100.114 107.314 114.171 119.314 123.429 127.886 129.943 137.829 133.714 148.8 133.714L149.143 133.714C156.343 133.714 163.2 132 169.714 128.914 180.343 123.771 188.571 115.2 193.029 104.571L193.029 104.571C195.086 98.7429 196.457 92.2286 196.457 86.0571L196.457 86.0571ZM190.286 101.486C189.943 101.143 189.6 101.143 189.257 101.143 188.914 100.8 188.571 100.8 187.886 100.457 187.2 100.114 186.171 99.7714 185.486 99.4286 185.143 99.4286 185.143 99.0857 184.8 99.0857 178.971 97.0286 172.457 95.6571 166.286 95.6571L163.886 95.6571C163.886 95.3143 163.543 94.9714 163.543 94.6286L163.543 94.6286C163.2 94.2857 163.2 93.9429 162.857 93.6 162.857 93.6 162.857 93.2571 162.514 93.2571 162.286 93.0285 162.057 92.8001 161.829 92.5714L161.486 92.2286C161.143 92.2286 161.143 91.8857 160.8 91.8857L160.457 91.5429C160.114 91.5429 160.114 91.2 159.771 91.2 159.771 91.2 159.429 91.2 159.429 90.8571 159.086 90.8571 158.743 90.8571 158.743 90.5143 159.086 75.4286 167.314 61.7143 180.343 53.8286 188.571 62.0571 193.714 73.3714 193.714 85.7143 193.029 91.2 192 96.3429 190.286 101.486L190.286 101.486ZM161.486 109.714C162.171 111.086 162.857 112.8 163.543 114.514 163.543 114.857 163.886 115.2 163.886 115.543 164.571 117.6 165.257 119.314 165.6 121.371 165.6 122.057 165.943 122.743 165.943 123.086 166.286 124.114 166.286 125.486 166.629 126.514 161.143 128.914 155.314 130.286 149.486 130.286 148.457 129.257 147.771 128.229 146.743 127.2 146.514 126.971 146.286 126.743 146.057 126.514 145.029 125.143 144 123.771 142.971 122.057 142.629 121.714 142.286 121.029 142.286 120.686 141.6 119.657 140.914 118.629 140.229 117.257 139.886 116.571 139.543 115.886 139.2 115.543 138.857 114.857 138.514 114.171 138.171 113.143L138.171 113.143C138.514 113.143 138.514 112.8 138.514 112.8 138.857 112.457 139.2 112.114 139.543 111.771 139.543 111.429 139.886 111.429 139.886 111.086 140.229 110.743 140.229 110.4 140.571 109.714 140.571 109.486 140.686 109.257 140.914 109.029 141.257 108.343 141.257 107.657 141.257 106.971 141.257 106.286 141.257 105.6 140.914 104.914L140.914 104.571 140.914 104.571 145.029 102.514 145.029 102.514C146.4 101.829 148.114 101.486 149.486 100.8L149.486 100.8C149.829 101.486 150.171 101.829 150.514 102.171L150.514 102.171C150.857 102.514 151.2 102.857 151.886 103.2 151.886 103.2 152.229 103.2 152.229 103.543 152.571 103.886 153.257 104.229 153.943 104.229L154.286 104.229C154.971 104.229 155.657 104.571 156 104.571 156.686 104.571 157.371 104.571 158.057 104.229L158.743 104.229C159.429 105.257 159.771 105.943 160.457 106.971 160.8 108.343 161.143 109.029 161.486 109.714L161.486 109.714ZM140.229 85.7143C141.6 86.4 142.629 87.4286 143.657 88.1143L143.657 88.1143C144.686 89.1429 146.057 90.1714 147.086 90.8571 147.429 91.2 147.771 91.5429 148.114 91.8857 148.8 92.2286 149.143 92.9143 149.829 93.6L149.829 93.9429C149.486 94.2857 149.143 94.9714 149.143 95.6571L149.143 96C148.8 96.6857 148.8 97.3714 148.8 98.0571L148.8 98.0571C148.571 98.0571 148.343 98.1713 148.114 98.4 146.743 98.7429 145.371 99.4286 143.657 100.114L143.657 100.114 139.543 102.171C139.314 102.171 139.086 102.286 138.857 102.514L138.514 102.514C138.286 102.286 138.057 102.057 137.829 101.829 137.829 101.829 137.486 101.829 137.486 101.486 137.143 101.143 136.8 101.143 136.457 100.8L136.457 100.8C136.114 100.457 135.429 100.457 135.086 100.457L133.371 100.457 133.371 100.114C133.029 98.4 132.686 96.6857 132.686 94.6286L132.686 93.9429C132.343 91.8857 132.343 90.1714 132.343 88.1143L132.343 86.7429C132.572 86.7429 132.8 86.6287 133.029 86.4L133.371 86.4C134.057 86.0571 134.4 86.0571 135.086 85.7143 135.086 85.7143 135.429 85.7143 135.429 85.3714 135.771 85.0286 136.114 84.6857 136.8 84.3429 136.8 84.3429 137.143 84.3429 137.143 84L137.143 84 139.2 85.0286C139.543 85.0286 139.886 85.3714 140.229 85.7143L140.229 85.7143ZM122.4 49.7143C129.943 44.2286 139.2 41.1429 148.457 41.1429L148.8 41.1429C150.171 41.1429 151.2 41.1429 152.571 41.4857 161.829 42.1714 170.4 45.9429 177.257 51.7714 163.886 60.3429 155.314 75.0857 154.971 90.8571L154.629 90.8571C154.286 90.8571 153.943 91.2 153.257 91.2L152.914 91.2C152.229 90.5143 151.543 90.1714 151.2 89.4857 150.857 89.1429 150.514 88.8 150.171 88.4571 148.8 87.4286 147.771 86.4 146.4 85.3714L146.4 85.3714C145.029 84.3429 143.657 83.3143 142.629 82.6286 142.286 82.2857 141.6 81.9429 141.257 81.9429 140.571 81.6 139.886 80.9143 139.2 80.5714L139.2 80.5714C139.2 79.8857 139.543 79.5429 139.543 78.8571 139.543 77.4857 139.2 76.1143 138.514 75.0857 137.486 73.3714 135.771 72 133.371 71.3143L130.971 71.3143C130.286 71.3143 129.943 71.6571 129.257 71.6571 129.028 71.6571 128.914 71.7713 128.914 72 128.571 72.3429 127.886 72.6857 127.543 73.0286L127.2 73.3714 126.171 74.4 125.829 74.7429C124.8 74.4 123.429 74.0571 122.4 74.0571 122.057 74.0571 121.714 73.7143 121.371 73.7143 119.657 73.3714 117.6 73.0286 115.886 72.6857L115.2 72.6857C113.486 72.6857 112.114 72.3429 110.4 72.3429L106.629 72.3429C109.029 63.4286 114.514 55.2 122.4 49.7143L122.4 49.7143ZM103.886 85.3714C103.886 82.2857 104.229 79.2 104.914 75.7714L109.371 75.7714C111.086 75.7714 112.8 75.7714 114.514 76.1143L115.2 76.1143C116.571 76.4571 118.286 76.4571 119.657 76.8 120.343 76.8 120.686 77.1429 121.371 77.1429 122.057 77.4857 123.086 77.4857 123.771 77.8286L123.771 80.2286C123.771 80.5714 123.771 80.9143 124.114 80.9143 124.114 80.9143 124.114 81.2571 124.457 81.2571 124.457 81.6 124.8 81.6 124.8 81.9429 124.8 81.9429 124.8 82.2857 125.143 82.2857 125.143 82.6286 125.486 82.6286 125.486 82.9714L125.829 83.3143 126.514 84C126.514 84 126.857 84 126.857 84.3429 127.543 84.6857 128.229 85.3714 128.914 85.3714L128.914 87.0857C128.914 89.1429 128.914 91.2 129.257 93.2571L129.257 93.9429C129.6 96 129.6 97.7143 130.286 99.7714L130.286 100.457 130.286 100.457C129.6 100.8 129.257 101.143 128.914 101.486L128.914 101.486C128.571 101.829 128.229 102.514 127.886 102.857 127.886 102.857 127.886 103.2 127.543 103.2 127.2 103.543 126.857 104.229 126.857 104.914L126.857 105.257C126.857 105.943 126.514 106.629 126.514 106.971 126.514 107.657 126.514 108 126.857 108.686L126.857 109.029C126.857 109.371 127.2 109.714 127.2 110.057L127.2 110.4 126.857 110.743 123.429 114.171 123.086 114.514C122.057 115.886 121.029 117.257 120 118.629L119.657 118.971C109.714 111.086 103.886 98.7429 103.886 85.3714ZM122.4 121.714 122.743 121.371C123.771 120 124.457 118.971 125.829 117.6L125.829 117.6C126.857 116.571 127.886 115.2 129.257 114.171L129.6 113.829C129.943 114.171 130.286 114.514 130.971 114.514L131.314 114.514C131.657 114.857 132 114.857 132.686 114.857L135.429 114.857C136.114 116.229 136.8 117.257 137.143 118.629L137.143 118.971C137.829 120.686 138.857 122.057 139.886 123.429 140.229 123.771 140.571 124.457 140.914 124.8 141.6 125.829 142.286 126.857 143.314 127.886 143.657 128.229 144 128.914 144.343 129.257 144.686 129.6 144.686 129.943 145.029 130.286 136.8 129.6 128.914 126.514 122.4 121.714L122.4 121.714ZM170.057 124.8C170.057 123.771 169.714 123.086 169.371 122.057 169.371 121.371 169.029 120.686 169.029 120 168.686 118.286 168 116.914 167.657 115.543 167.657 115.2 167.314 114.514 167.314 114.171 166.629 112.114 165.6 110.4 164.914 108.343 164.571 108 164.229 107.314 164.229 106.971 163.543 105.943 163.2 104.571 162.514 103.543L162.514 103.543C162.857 103.2 163.2 102.514 163.543 101.829 163.543 101.829 163.543 101.486 163.886 101.486 164.229 101.143 164.229 100.457 164.229 100.114L164.229 99.7714 166.286 99.7714C172.114 99.7714 178.286 100.8 184.114 102.857 184.114 102.857 184.457 102.857 184.457 103.2 185.486 103.543 186.171 103.886 187.2 104.229 187.543 104.229 187.886 104.571 188.229 104.571 188.571 104.914 188.914 104.914 189.257 105.257 184.8 113.143 178.286 120 170.057 124.8Z" fill="#FFFFFF" transform="matrix(1.00239 0 0 1 1237 338)"/></g></g></g><path d="M0.0280562-3.43739 27.5271-3.21294 27.471 3.66183-0.0280562 3.43739ZM48.1515-3.0446 75.6505-2.82015 75.5944 4.05462 48.0953 3.83017ZM96.2749-2.65181 123.774-2.42736 123.718 4.44741 96.2187 4.22296ZM144.398-2.25903 171.897-2.03458 171.841 4.84019 144.342 4.61575ZM192.522-1.86624 220.021-1.64179 219.965 5.23298 192.466 5.00853ZM240.645-1.47345 268.144-1.249 268.088 5.62577 240.589 5.40132ZM288.768-1.08067 316.268-0.856217 316.211 6.01855 288.712 5.7941ZM336.892-0.68788 364.391-0.46343 364.335 6.41134 336.836 6.18689ZM385.015-0.295093 412.514-0.070644 412.458 6.80413 384.959 6.57968ZM433.139 0.0976929 460.638 0.322142 460.582 7.19691 433.083 6.97246ZM481.262 0.490479 508.761 0.714929 508.705 7.5897 481.206 7.36525ZM529.385 0.883266 556.885 1.10772 556.828 7.98249 529.329 7.75804ZM577.509 1.27605 605.008 1.5005 604.952 8.37527 577.453 8.15082ZM625.632 1.66884 653.131 1.89329 653.075 8.76806 625.576 8.54361ZM673.756 2.06163 701.255 2.28607 701.199 9.16085 673.7 8.9364ZM721.879 2.45441 749.378 2.67886 749.322 9.55363 721.823 9.32918ZM754.57-7.59161 781.956 6.38238 754.345 19.9075Z" fill="#63218E" transform="matrix(1 0 0 -1 1607.5 415.882)"/><path d="M1603.05 572.196 1932.54 937.102 1927.44 941.709 1597.95 576.804ZM1937.12 926.789 1945.35 956.414 1916.71 945.219Z"/><path d="M1609.72 412.878 1630.7 430.666 1626.25 435.909 1605.28 418.122ZM1646.43 444.006 1667.4 461.793 1662.95 467.037 1641.98 449.249ZM1683.13 475.134 1704.1 492.921 1699.65 498.164 1678.68 480.377ZM1719.83 506.262 1740.8 524.049 1736.36 529.292 1715.38 511.505ZM1756.53 537.389 1777.51 555.177 1773.06 560.42 1752.09 542.633ZM1793.24 568.517 1814.21 586.304 1809.76 591.548 1788.79 573.76ZM1829.94 599.645 1850.91 617.432 1846.46 622.675 1825.49 604.888ZM1866.64 630.773 1887.61 648.56 1883.17 653.803 1862.19 636.016ZM1903.34 661.9 1924.32 679.688 1919.87 684.931 1898.9 667.144ZM1940.05 693.028 1961.02 710.815 1956.57 716.059 1935.6 698.271ZM1976.75 724.156 1997.72 741.943 1993.28 747.186 1972.3 729.399ZM2013.45 755.284 2034.42 773.071 2029.98 778.314 2009 760.527ZM2050.15 786.411 2071.13 804.198 2066.68 809.442 2045.71 791.654ZM2086.86 817.539 2107.83 835.326 2103.38 840.569 2082.41 822.782ZM2123.56 848.667 2144.53 866.454 2140.09 871.697 2119.11 853.91ZM2160.26 879.794 2181.23 897.582 2176.79 902.825 2155.82 885.038ZM2196.96 910.922 2217.94 928.709 2213.49 933.953 2192.52 916.165ZM2233.67 942.05 2254.64 959.837 2250.19 965.08 2229.22 947.293ZM2270.37 973.178 2291.34 990.965 2286.9 996.208 2265.92 978.421ZM2307.07 1004.31 2328.05 1022.09 2323.6 1027.34 2302.63 1009.55ZM2343.78 1035.43 2364.75 1053.22 2360.3 1058.46 2339.33 1040.68ZM2377.38 1050.41 2389.46 1078.68 2359.59 1071.38Z" fill="#63218E"/><path d="M1610.46 413.761 1624.38 437.479 1618.45 440.958 1604.54 417.24ZM1634.82 455.268 1648.73 478.987 1642.81 482.466 1628.89 458.748ZM1659.17 496.776 1673.09 520.495 1667.16 523.974 1653.24 500.256ZM1683.53 538.284 1697.44 562.003 1691.51 565.482 1677.6 541.764ZM1707.88 579.792 1721.8 603.511 1715.87 606.99 1701.95 583.271ZM1732.23 621.3 1746.15 645.019 1740.22 648.498 1726.3 624.779ZM1756.59 662.808 1770.5 686.527 1764.57 690.006 1750.66 666.287ZM1780.94 704.316 1794.86 728.035 1788.93 731.514 1775.01 707.795ZM1805.29 745.824 1819.21 769.543 1813.28 773.022 1799.36 749.303ZM1829.65 787.332 1843.56 811.051 1837.64 814.53 1823.72 790.811ZM1854 828.84 1867.92 852.559 1861.99 856.038 1848.07 832.319ZM1878.36 870.348 1892.27 894.067 1886.34 897.546 1872.43 873.827ZM1902.71 911.856 1916.63 935.575 1910.7 939.054 1896.78 915.335ZM1927.06 953.364 1940.98 977.083 1935.05 980.562 1921.13 956.843ZM1951.42 994.872 1965.33 1018.59 1959.4 1022.07 1945.49 998.351ZM1975.77 1036.38 1989.69 1060.1 1983.76 1063.58 1969.84 1039.86ZM2000.12 1077.89 2014.04 1101.61 2008.11 1105.09 1994.19 1081.37ZM2024.48 1119.4 2038.39 1143.11 2032.47 1146.59 2018.55 1122.87ZM2048.83 1160.9 2062.75 1184.62 2056.82 1188.1 2042.9 1164.38ZM2073.19 1202.41 2087.1 1226.13 2081.17 1229.61 2067.26 1205.89ZM2097.54 1243.92 2111.46 1267.64 2105.53 1271.12 2091.61 1247.4ZM2121.89 1285.43 2135.81 1309.15 2129.88 1312.63 2115.96 1288.91ZM2146.25 1326.94 2160.16 1350.65 2154.23 1354.13 2140.32 1330.41ZM2170.6 1368.44 2184.52 1392.16 2178.59 1395.64 2164.67 1371.92ZM2194.95 1409.95 2208.87 1433.67 2202.94 1437.15 2189.02 1413.43ZM2219.31 1451.46 2233.22 1475.18 2227.29 1478.66 2213.38 1454.94ZM2243.66 1492.97 2257.58 1516.69 2251.65 1520.17 2237.73 1496.45ZM2268.02 1534.48 2281.93 1558.19 2276 1561.67 2262.09 1537.95ZM2292.37 1575.98 2306.29 1599.7 2300.36 1603.18 2286.44 1579.46ZM2316.72 1617.49 2330.64 1641.21 2324.71 1644.69 2310.79 1620.97ZM2341.08 1659 2354.99 1682.72 2349.06 1686.2 2335.15 1662.48ZM2365.43 1700.51 2379.35 1724.23 2373.42 1727.71 2359.5 1703.99ZM2387.4 1717.57 2389.46 1748.25 2363.68 1731.49Z" fill="#63218E"/></g></svg>