<svg width="2357" height="816" xmlns="http://www.w3.org/2000/svg" xmlns:xlink="http://www.w3.org/1999/xlink" xml:space="preserve" overflow="hidden"><g transform="translate(-771 -782)"><rect x="1960" y="971" width="1167" height="626" stroke="#042433" stroke-width="2.29167" stroke-miterlimit="8" fill="#F2F2F2"/><text font-family="Aptos,Aptos_MSFontService,sans-serif" font-weight="400" font-size="55" transform="matrix(1 0 0 1 1994.81 1040)">Zone A</text><path d="M2200 1061.2C2200 1047.83 2210.83 1037 2224.2 1037L3020.8 1037C3034.17 1037 3045 1047.83 3045 1061.2L3045 1518.8C3045 1532.17 3034.17 1543 3020.8 1543L2224.2 1543C2210.83 1543 2200 1532.17 2200 1518.8Z" stroke="#7F7F7F" stroke-width="2.29167" stroke-miterlimit="8" fill="#D9D9D9" fill-rule="evenodd"/><text fill="#595959" font-family="Aptos,Aptos_MSFontService,sans-serif" font-weight="400" font-size="46" transform="matrix(1 0 0 1 2249.19 1094)">Node A</text><path d="M2181.55 1141.08 2180.55 1141.08 2180.55 1140.08 2181.55 1140.08Z" stroke="#3A414A" stroke-width="0.0422244" stroke-miterlimit="8" fill="#3A414A" fill-rule="evenodd"/><path d="M2157 1122.67C2157 1117.88 2160.88 1114 2165.67 1114L2256.33 1114C2261.12 1114 2265 1117.88 2265 1122.67L2265 1157.33C2265 1162.12 2261.12 1166 2256.33 1166L2165.67 1166C2160.88 1166 2157 1162.12 2157 1157.33Z" stroke="#042433" stroke-width="2.29167" stroke-miterlimit="8" fill="#FFFFFF" fill-rule="evenodd"/><text font-family="Aptos,Aptos_MSFontService,sans-serif" font-weight="400" font-size="37" transform="matrix(1 0 0 1 2172.65 1152)">ens3</text><path d="M2434 1137.83C2434 1127.43 2442.43 1119 2452.83 1119L2603.17 1119C2613.57 1119 2622 1127.43 2622 1137.83L2622 1213.17C2622 1223.57 2613.57 1232 2603.17 1232L2452.83 1232C2442.43 1232 2434 1223.57 2434 1213.17Z" stroke="#042433" stroke-width="2.29167" stroke-miterlimit="8" fill="#C00000" fill-rule="evenodd" fill-opacity="0.521569"/><text font-family="Aptos,Aptos_MSFontService,sans-serif" font-weight="700" font-size="37" transform="matrix(1 0 0 1 2473.42 1188)">TMM A</text><path d="M2318 1122.83C2318 1117.95 2321.95 1114 2326.83 1114L2455.17 1114C2460.05 1114 2464 1117.95 2464 1122.83L2464 1158.17C2464 1163.05 2460.05 1167 2455.17 1167L2326.83 1167C2321.95 1167 2318 1163.05 2318 1158.17Z" stroke="#042433" stroke-width="2.29167" stroke-miterlimit="8" fill="#FFFFFF" fill-rule="evenodd"/><text font-family="Aptos,Aptos_MSFontService,sans-serif" font-weight="400" font-size="37" transform="matrix(1 0 0 1 2325.9 1153)">External</text><path d="M2318 1196.83C2318 1191.95 2321.95 1188 2326.83 1188L2455.17 1188C2460.05 1188 2464 1191.95 2464 1196.83L2464 1232.17C2464 1237.05 2460.05 1241 2455.17 1241L2326.83 1241C2321.95 1241 2318 1237.05 2318 1232.17Z" stroke="#042433" stroke-width="2.29167" stroke-miterlimit="8" fill="#FFFFFF" fill-rule="evenodd"/><text font-family="Aptos,Aptos_MSFontService,sans-serif" font-weight="400" font-size="37" transform="matrix(1 0 0 1 2329.34 1226)">Internal</text><path d="M2594 1196.83C2594 1191.95 2597.95 1188 2602.83 1188L2731.17 1188C2736.05 1188 2740 1191.95 2740 1196.83L2740 1232.17C2740 1237.05 2736.05 1241 2731.17 1241L2602.83 1241C2597.95 1241 2594 1237.05 2594 1232.17Z" stroke="#042433" stroke-width="2.29167" stroke-miterlimit="8" fill="#FFFFFF" fill-rule="evenodd"/><text font-family="Aptos,Aptos_MSFontService,sans-serif" font-weight="400" font-size="37" transform="matrix(1 0 0 1 2631.84 1226)">eth0</text><path d="M2318 1306.83C2318 1301.95 2321.95 1298 2326.83 1298L2455.17 1298C2460.05 1298 2464 1301.95 2464 1306.83L2464 1342.17C2464 1347.05 2460.05 1351 2455.17 1351L2326.83 1351C2321.95 1351 2318 1347.05 2318 1342.17Z" stroke="#042433" stroke-width="2.29167" stroke-miterlimit="8" fill="#FFFFFF" fill-rule="evenodd"/><text font-family="Aptos,Aptos_MSFontService,sans-serif" font-weight="400" font-size="37" transform="matrix(1 0 0 1 2320.45 1336)">dummy0</text><path d="M2319 1404.83C2319 1399.95 2322.95 1396 2327.83 1396L2456.17 1396C2461.05 1396 2465 1399.95 2465 1404.83L2465 1440.17C2465 1445.05 2461.05 1449 2456.17 1449L2327.83 1449C2322.95 1449 2319 1445.05 2319 1440.17Z" stroke="#042433" stroke-width="2.29167" stroke-miterlimit="8" fill="#FFFFFF" fill-rule="evenodd"/><text font-family="Aptos,Aptos_MSFontService,sans-serif" font-weight="400" font-size="37" transform="matrix(1 0 0 1 2343.66 1434)">shim0</text><path d="M2317.41 1141.58 2287.91 1141.33 2287.93 1139.04 2317.43 1139.29ZM2292.39 1153.98 2265 1140 2292.61 1126.48Z"/><path d="M1.14583-7.29078e-06 1.14605 33.8019-1.14562 33.8019-1.14583 7.29078e-06ZM13.7502 29.2185 0.000360892 56.7186-13.7498 29.2187Z" transform="matrix(1 0 0 -1 2391 1297.72)"/><path d="M2391.57 1395.73 2390.74 1373.94 2393.03 1373.86 2393.86 1395.64ZM2378.32 1379.01 2391 1351 2405.8 1377.95Z"/><path d="M2801 1139.83C2801 1129.43 2809.43 1121 2819.83 1121L2969.17 1121C2979.57 1121 2988 1129.43 2988 1139.83L2988 1215.17C2988 1225.57 2979.57 1234 2969.17 1234L2819.83 1234C2809.43 1234 2801 1225.57 2801 1215.17Z" stroke="#042433" stroke-width="2.29167" stroke-miterlimit="8" fill="#FFFFFF" fill-rule="evenodd" fill-opacity="0.521569"/><text font-family="Aptos,Aptos_MSFontService,sans-serif" font-weight="700" font-size="37" transform="matrix(1 0 0 1 2845.24 1189)">APP A</text><path d="M2775 1224C2775 1219.03 2779.03 1215 2784 1215L2867 1215C2871.97 1215 2876 1219.03 2876 1224L2876 1260C2876 1264.97 2871.97 1269 2867 1269L2784 1269C2779.03 1269 2775 1264.97 2775 1260Z" stroke="#042433" stroke-width="2.29167" stroke-miterlimit="8" fill="#FFFFFF" fill-rule="evenodd"/><text font-family="Aptos,Aptos_MSFontService,sans-serif" font-weight="400" font-size="37" transform="matrix(1 0 0 1 2789.96 1254)">eth0</text><path d="M2720 1404.83C2720 1399.95 2723.95 1396 2728.83 1396L2929.17 1396C2934.04 1396 2938 1399.95 2938 1404.83L2938 1440.17C2938 1445.05 2934.04 1449 2929.17 1449L2728.83 1449C2723.95 1449 2720 1445.05 2720 1440.17Z" stroke="#042433" stroke-width="2.29167" stroke-miterlimit="8" fill="#FFFFFF" fill-rule="evenodd"/><text font-family="Aptos,Aptos_MSFontService,sans-serif" font-weight="400" font-size="37" transform="matrix(1 0 0 1 2727.8 1434)">Calico App A</text><path d="M2826.15 1268.97 2828.96 1373.25 2826.67 1373.31 2823.85 1269.03ZM2841.44 1368.33 2828.44 1396.19 2813.95 1369.07Z"/><path d="M2012 1441.33C2012 1433.42 2018.42 1427 2026.33 1427L2156.67 1427C2164.58 1427 2171 1433.42 2171 1441.33L2171 1498.67C2171 1506.58 2164.58 1513 2156.67 1513L2026.33 1513C2018.42 1513 2012 1506.58 2012 1498.67Z" stroke="#042433" stroke-width="2.29167" stroke-miterlimit="8" fill="#595959" fill-rule="evenodd"/><text fill="#FFFFFF" font-family="Aptos,Aptos_MSFontService,sans-serif" font-weight="400" font-size="41" transform="matrix(1 0 0 1 2046.03 1483)">VSI A</text><path d="M2439.5 1105C2439.5 1095.34 2447.33 1087.5 2457 1087.5 2466.67 1087.5 2474.5 1095.34 2474.5 1105 2474.5 1114.66 2466.67 1122.5 2457 1122.5 2447.33 1122.5 2439.5 1114.66 2439.5 1105Z" stroke="#FF0000" stroke-width="6.875" stroke-miterlimit="8" fill="#C00000" fill-rule="evenodd"/><text fill="#C00000" font-family="Aptos,Aptos_MSFontService,sans-serif" font-weight="700" font-size="48" transform="matrix(1 0 0 1 2491.96 1092)">Self IP Next Hop</text><text font-family="Aptos,Aptos_MSFontService,sans-serif" font-weight="700" font-size="28" transform="matrix(1 0 0 1 2216.96 1192)">IPVLAN</text><text font-family="Aptos,Aptos_MSFontService,sans-serif" font-weight="700" font-size="28" transform="matrix(1 0 0 1 2420.92 1279)">MACVLAN</text><text font-family="Aptos,Aptos_MSFontService,sans-serif" font-weight="700" font-size="28" transform="matrix(1 0 0 1 2029.74 1199)">VPC Single</text><text font-family="Aptos,Aptos_MSFontService,sans-serif" font-weight="700" font-size="28" transform="matrix(1 0 0 1 2029.74 1232)">NIC Subnet</text><text font-family="Aptos,Aptos_MSFontService,sans-serif" font-weight="700" font-size="28" transform="matrix(1 0 0 1 2029.74 1265)">Address</text><path d="M2128.5 1138.5C2128.5 1129.11 2136.33 1121.5 2146 1121.5 2155.67 1121.5 2163.5 1129.11 2163.5 1138.5 2163.5 1147.89 2155.67 1155.5 2146 1155.5 2136.33 1155.5 2128.5 1147.89 2128.5 1138.5Z" stroke="#000000" stroke-width="6.875" stroke-miterlimit="8" fill="#F2F2F2" fill-rule="evenodd"/><path d="M1638.45 1130.26 2105.51 1134.29 2105.45 1141.17 1638.39 1137.14ZM1642.88 1147.49 1615.5 1133.5 1643.12 1119.99ZM2101.01 1123.94 2128.39 1137.93 2100.78 1151.44Z"/><path d="M2090.5 818.667C2090.5 808.081 2099.08 799.5 2109.67 799.5L2451.33 799.5C2461.92 799.5 2470.5 808.081 2470.5 818.667L2470.5 895.333C2470.5 905.918 2461.92 914.5 2451.33 914.5L2109.67 914.5C2099.08 914.5 2090.5 905.918 2090.5 895.333Z" stroke="#FF0000" stroke-width="6.875" stroke-miterlimit="8" fill="#C00000" fill-rule="evenodd" fill-opacity="0.501961"/><text font-family="Aptos,Aptos_MSFontService,sans-serif" font-weight="400" font-size="83" transform="matrix(1 0 0 1 2185.99 883)">CWC</text><text font-family="Aptos,Aptos_MSFontService,sans-serif" font-weight="700" font-size="46" transform="matrix(1 0 0 1 2555.83 1505)">f5</text><text font-family="Aptos,Aptos_MSFontService,sans-serif" font-weight="700" font-size="46" transform="matrix(1 0 0 1 2595.93 1505)">-</text><text font-family="Aptos,Aptos_MSFontService,sans-serif" font-weight="700" font-size="46" transform="matrix(1 0 0 1 2611.4 1505)">tmm</text><path d="M773.986 824.07 1176.08 824.07 1176.08 912.07 773.986 912.07Z" fill-rule="evenodd"/><path d="M1176.08 824.07 1791.09 824.07 1791.09 912.07 1176.08 912.07Z" fill-rule="evenodd"/><path d="M773.986 912.07 1176.08 912.07 1176.08 1004.01 773.986 1004.01Z" fill="#CBCBCB" fill-rule="evenodd"/><path d="M1176.08 912.07 1791.09 912.07 1791.09 1004.01 1176.08 1004.01Z" fill="#CBCBCB" fill-rule="evenodd"/><path d="M1176.08 821.778 1176.08 1006.3" stroke="#FFFFFF" stroke-width="4.58333" stroke-linejoin="round" stroke-miterlimit="10" fill="none" fill-rule="evenodd"/><path d="M771.694 912.07 1793.38 912.07" stroke="#FFFFFF" stroke-width="13.75" stroke-linejoin="round" stroke-miterlimit="10" fill="none" fill-rule="evenodd"/><path d="M773.986 821.778 773.986 1006.3" stroke="#FFFFFF" stroke-width="4.58333" stroke-linejoin="round" stroke-miterlimit="10" fill="none" fill-rule="evenodd"/><path d="M1791.09 821.778 1791.09 1006.3" stroke="#FFFFFF" stroke-width="4.58333" stroke-linejoin="round" stroke-miterlimit="10" fill="none" fill-rule="evenodd"/><path d="M771.694 824.07 1793.38 824.07" stroke="#FFFFFF" stroke-width="4.58333" stroke-linejoin="round" stroke-miterlimit="10" fill="none" fill-rule="evenodd"/><path d="M771.694 1004.01 1793.38 1004.01" stroke="#FFFFFF" stroke-width="4.58333" stroke-linejoin="round" stroke-miterlimit="10" fill="none" fill-rule="evenodd"/><text fill="#FFFFFF" font-family="Aptos,Aptos_MSFontService,sans-serif" font-weight="700" font-size="46" transform="matrix(1 0 0 1 1209.07 883)">Single NIC VPC address</text><text fill="#FFFFFF" font-family="Aptos,Aptos_MSFontService,sans-serif" font-weight="700" font-size="46" transform="matrix(1 0 0 1 806.986 883)">F5 Self IP</text><text font-family="Aptos,Aptos_MSFontService,sans-serif" font-weight="400" font-size="46" transform="matrix(1 0 0 1 1209.07 971)">F5 Self IP</text><text font-family="Aptos,Aptos_MSFontService,sans-serif" font-weight="400" font-size="46" transform="matrix(1 0 0 1 806.986 971)">F5 Gateway IP</text><path d="M1311.5 1134C1311.5 1049.78 1379.55 981.5 1463.5 981.5 1547.45 981.5 1615.5 1049.78 1615.5 1134 1615.5 1218.22 1547.45 1286.5 1463.5 1286.5 1379.55 1286.5 1311.5 1218.22 1311.5 1134Z" stroke="#042433" stroke-width="6.875" stroke-miterlimit="8" fill="#D9D9D9" fill-rule="evenodd"/><text font-family="Aptos,Aptos_MSFontService,sans-serif" font-weight="400" font-size="64" transform="matrix(1 0 0 1 1403.16 1115)">VPC</text><text font-family="Aptos,Aptos_MSFontService,sans-serif" font-weight="400" font-size="64" transform="matrix(1 0 0 1 1370.09 1192)">Router</text><path d="M0.648162-3.37584 277.055 49.6944 275.759 56.446-0.648162 3.37584ZM274.498 38.7026 298.912 57.3913 269.313 65.7093Z" fill="#C00000" transform="matrix(-1 0 0 1 2090.41 857.5)"/></g></svg>