<svg width="1532" height="1967" xmlns="http://www.w3.org/2000/svg" xmlns:xlink="http://www.w3.org/1999/xlink" xml:space="preserve" overflow="hidden"><g transform="translate(-1434 -241)"><rect x="1797" y="242" width="1168" height="625" stroke="#042433" stroke-width="2.29167" stroke-miterlimit="8" fill="#F2F2F2"/><text font-family="Aptos,Aptos_MSFontService,sans-serif" font-weight="400" font-size="55" transform="matrix(1 0 0 1 1832.2 310)">Zone A</text><path d="M2037 331.197C2037 317.833 2047.83 307 2061.2 307L2858.8 307C2872.17 307 2883 317.833 2883 331.197L2883 788.803C2883 802.167 2872.17 813 2858.8 813L2061.2 813C2047.83 813 2037 802.167 2037 788.803Z" stroke="#7F7F7F" stroke-width="2.29167" stroke-miterlimit="8" fill="#D9D9D9" fill-rule="evenodd"/><text fill="#595959" font-family="Aptos,Aptos_MSFontService,sans-serif" font-weight="400" font-size="46" transform="matrix(1 0 0 1 2086.58 365)">Node A</text><path d="M2019.55 412.076 2018.55 412.076 2018.55 411.076 2019.55 411.076Z" stroke="#3A414A" stroke-width="0.0422244" stroke-miterlimit="8" fill="#3A414A" fill-rule="evenodd"/><path d="M1994 393.667C1994 388.88 1997.88 385 2002.67 385L2094.33 385C2099.12 385 2103 388.88 2103 393.667L2103 428.333C2103 433.12 2099.12 437 2094.33 437L2002.67 437C1997.88 437 1994 433.12 1994 428.333Z" stroke="#042433" stroke-width="2.29167" stroke-miterlimit="8" fill="#FFFFFF" fill-rule="evenodd"/><text font-family="Aptos,Aptos_MSFontService,sans-serif" font-weight="400" font-size="37" transform="matrix(1 0 0 1 2010.04 423)">ens3</text><path d="M2272 408.834C2272 398.432 2280.43 390 2290.83 390L2440.17 390C2450.57 390 2459 398.432 2459 408.834L2459 484.166C2459 494.568 2450.57 503 2440.17 503L2290.83 503C2280.43 503 2272 494.568 2272 484.166Z" stroke="#042433" stroke-width="2.29167" stroke-miterlimit="8" fill="#C00000" fill-rule="evenodd" fill-opacity="0.521569"/><text font-family="Aptos,Aptos_MSFontService,sans-serif" font-weight="700" font-size="37" transform="matrix(1 0 0 1 2310.81 458)">TMM A</text><path d="M2155 393.833C2155 388.955 2158.95 385 2163.83 385L2292.17 385C2297.05 385 2301 388.955 2301 393.833L2301 429.166C2301 434.045 2297.05 438 2292.17 438L2163.83 438C2158.95 438 2155 434.045 2155 429.166Z" stroke="#042433" stroke-width="2.29167" stroke-miterlimit="8" fill="#FFFFFF" fill-rule="evenodd"/><text font-family="Aptos,Aptos_MSFontService,sans-serif" font-weight="400" font-size="37" transform="matrix(1 0 0 1 2163.29 423)">External</text><path d="M2155 467C2155 462.029 2159.03 458 2164 458L2292 458C2296.97 458 2301 462.029 2301 467L2301 503C2301 507.97 2296.97 512 2292 512L2164 512C2159.03 512 2155 507.97 2155 503Z" stroke="#042433" stroke-width="2.29167" stroke-miterlimit="8" fill="#FFFFFF" fill-rule="evenodd"/><text font-family="Aptos,Aptos_MSFontService,sans-serif" font-weight="400" font-size="37" transform="matrix(1 0 0 1 2166.72 497)">Internal</text><path d="M2432 467C2432 462.029 2436.03 458 2441 458L2569 458C2573.97 458 2578 462.029 2578 467L2578 503C2578 507.97 2573.97 512 2569 512L2441 512C2436.03 512 2432 507.97 2432 503Z" stroke="#042433" stroke-width="2.29167" stroke-miterlimit="8" fill="#FFFFFF" fill-rule="evenodd"/><text font-family="Aptos,Aptos_MSFontService,sans-serif" font-weight="400" font-size="37" transform="matrix(1 0 0 1 2469.23 497)">eth0</text><path d="M2155 577C2155 572.029 2159.03 568 2164 568L2292 568C2296.97 568 2301 572.029 2301 577L2301 613C2301 617.97 2296.97 622 2292 622L2164 622C2159.03 622 2155 617.97 2155 613Z" stroke="#042433" stroke-width="2.29167" stroke-miterlimit="8" fill="#FFFFFF" fill-rule="evenodd"/><text font-family="Aptos,Aptos_MSFontService,sans-serif" font-weight="400" font-size="37" transform="matrix(1 0 0 1 2157.84 607)">dummy0</text><path d="M2157 675C2157 670.029 2161.03 666 2166 666L2294 666C2298.97 666 2303 670.029 2303 675L2303 711C2303 715.971 2298.97 720 2294 720L2166 720C2161.03 720 2157 715.971 2157 711Z" stroke="#042433" stroke-width="2.29167" stroke-miterlimit="8" fill="#FFFFFF" fill-rule="evenodd"/><text font-family="Aptos,Aptos_MSFontService,sans-serif" font-weight="400" font-size="37" transform="matrix(1 0 0 1 2181.05 705)">shim0</text><path d="M2155.41 412.577 2125.91 412.334 2125.93 410.043 2155.43 410.285ZM2130.39 424.976 2103 411 2130.61 397.477Z"/><path d="M1.14583-7.29078e-06 1.14605 33.8019-1.14562 33.8019-1.14583 7.29078e-06ZM13.7502 29.2185 0.000360892 56.7186-13.7498 29.2187Z" transform="matrix(1 0 0 -1 2228 568.718)"/><path d="M2228.57 666.732 2227.74 644.944 2230.03 644.856 2230.86 666.644ZM2215.32 650.008 2228 622 2242.8 648.951Z"/><path d="M2638 410C2638 399.507 2646.51 391 2657 391L2806 391C2816.49 391 2825 399.507 2825 410L2825 486C2825 496.493 2816.49 505 2806 505L2657 505C2646.51 505 2638 496.493 2638 486Z" stroke="#042433" stroke-width="2.29167" stroke-miterlimit="8" fill="#FFFFFF" fill-rule="evenodd" fill-opacity="0.521569"/><text font-family="Aptos,Aptos_MSFontService,sans-serif" font-weight="700" font-size="37" transform="matrix(1 0 0 1 2682.63 460)">APP A</text><path d="M2612 494.834C2612 489.955 2615.96 486 2620.83 486L2705.17 486C2710.05 486 2714 489.955 2714 494.834L2714 530.167C2714 535.045 2710.05 539 2705.17 539L2620.83 539C2615.96 539 2612 535.045 2612 530.167Z" stroke="#042433" stroke-width="2.29167" stroke-miterlimit="8" fill="#FFFFFF" fill-rule="evenodd"/><text font-family="Aptos,Aptos_MSFontService,sans-serif" font-weight="400" font-size="37" transform="matrix(1 0 0 1 2627.35 525)">eth0</text><path d="M2557 675C2557 670.029 2561.03 666 2566 666L2766 666C2770.97 666 2775 670.029 2775 675L2775 711C2775 715.971 2770.97 720 2766 720L2566 720C2561.03 720 2557 715.971 2557 711Z" stroke="#042433" stroke-width="2.29167" stroke-miterlimit="8" fill="#FFFFFF" fill-rule="evenodd"/><text font-family="Aptos,Aptos_MSFontService,sans-serif" font-weight="400" font-size="37" transform="matrix(1 0 0 1 2565.19 705)">Calico App A</text><path d="M2664.15 538.969 2666.96 643.251 2664.67 643.313 2661.85 539.031ZM2679.44 638.329 2666.44 666.19 2651.95 639.072Z"/><path d="M1849 711.334C1849 703.418 1855.42 697 1863.33 697L1994.67 697C2002.58 697 2009 703.418 2009 711.334L2009 768.666C2009 776.583 2002.58 783 1994.67 783L1863.33 783C1855.42 783 1849 776.583 1849 768.666Z" stroke="#042433" stroke-width="2.29167" stroke-miterlimit="8" fill="#595959" fill-rule="evenodd"/><text fill="#FFFFFF" font-family="Aptos,Aptos_MSFontService,sans-serif" font-weight="400" font-size="41" transform="matrix(1 0 0 1 1883.42 754)">VSI A</text><path d="M2277.5 375.5C2277.5 366.111 2285.11 358.5 2294.5 358.5 2303.89 358.5 2311.5 366.111 2311.5 375.5 2311.5 384.889 2303.89 392.5 2294.5 392.5 2285.11 392.5 2277.5 384.889 2277.5 375.5Z" stroke="#FF0000" stroke-width="6.875" stroke-miterlimit="8" fill="#C00000" fill-rule="evenodd"/><text fill="#C00000" font-family="Aptos,Aptos_MSFontService,sans-serif" font-weight="700" font-size="48" transform="matrix(1 0 0 1 2329.35 362)">Self IP Next Hop</text><text font-family="Aptos,Aptos_MSFontService,sans-serif" font-weight="700" font-size="28" transform="matrix(1 0 0 1 2054.35 463)">IPVLAN</text><text font-family="Aptos,Aptos_MSFontService,sans-serif" font-weight="700" font-size="28" transform="matrix(1 0 0 1 2258.31 550)">MACVLAN</text><text font-family="Aptos,Aptos_MSFontService,sans-serif" font-weight="700" font-size="28" transform="matrix(1 0 0 1 1867.13 470)">VPC Single</text><text font-family="Aptos,Aptos_MSFontService,sans-serif" font-weight="700" font-size="28" transform="matrix(1 0 0 1 1867.13 503)">NIC Subnet</text><text font-family="Aptos,Aptos_MSFontService,sans-serif" font-weight="700" font-size="28" transform="matrix(1 0 0 1 1867.13 536)">Address</text><path d="M1966.5 409C1966.5 399.335 1974.11 391.5 1983.5 391.5 1992.89 391.5 2000.5 399.335 2000.5 409 2000.5 418.665 1992.89 426.5 1983.5 426.5 1974.11 426.5 1966.5 418.665 1966.5 409Z" stroke="#000000" stroke-width="6.875" stroke-miterlimit="8" fill="#F2F2F2" fill-rule="evenodd"/><path d="M1765.42 406.062 1943.33 406.063 1943.33 412.938 1765.42 412.937ZM1770 423.25 1742.5 409.5 1770 395.75ZM1938.74 395.75 1966.24 409.5 1938.74 423.25Z"/><text font-family="Aptos,Aptos_MSFontService,sans-serif" font-weight="700" font-size="46" transform="matrix(1 0 0 1 2393.22 776)">f5</text><text font-family="Aptos,Aptos_MSFontService,sans-serif" font-weight="700" font-size="46" transform="matrix(1 0 0 1 2433.32 776)">-</text><text font-family="Aptos,Aptos_MSFontService,sans-serif" font-weight="700" font-size="46" transform="matrix(1 0 0 1 2448.79 776)">tmm</text><path d="M1437.5 409C1437.5 324.776 1505.78 256.5 1590 256.5 1674.22 256.5 1742.5 324.776 1742.5 409 1742.5 493.223 1674.22 561.5 1590 561.5 1505.78 561.5 1437.5 493.223 1437.5 409Z" stroke="#042433" stroke-width="6.875" stroke-miterlimit="8" fill="#D9D9D9" fill-rule="evenodd"/><text font-family="Aptos,Aptos_MSFontService,sans-serif" font-weight="400" font-size="64" transform="matrix(1 0 0 1 1529.7 391)">VPC</text><text font-family="Aptos,Aptos_MSFontService,sans-serif" font-weight="400" font-size="64" transform="matrix(1 0 0 1 1496.63 468)">Router</text><rect x="1797" y="911" width="1168" height="626" stroke="#042433" stroke-width="2.29167" stroke-miterlimit="8" fill="#F2F2F2"/><text font-family="Aptos,Aptos_MSFontService,sans-serif" font-weight="400" font-size="55" transform="matrix(1 0 0 1 1832.2 980)">Zone B</text><path d="M2037 1001.2C2037 987.833 2047.83 977 2061.2 977L2858.8 977C2872.17 977 2883 987.833 2883 1001.2L2883 1458.8C2883 1472.17 2872.17 1483 2858.8 1483L2061.2 1483C2047.83 1483 2037 1472.17 2037 1458.8Z" stroke="#7F7F7F" stroke-width="2.29167" stroke-miterlimit="8" fill="#D9D9D9" fill-rule="evenodd"/><text fill="#595959" font-family="Aptos,Aptos_MSFontService,sans-serif" font-weight="400" font-size="46" transform="matrix(1 0 0 1 2086.58 1034)">Node B</text><path d="M2019.55 1081.08 2018.55 1081.08 2018.55 1080.08 2019.55 1080.08Z" stroke="#3A414A" stroke-width="0.0422244" stroke-miterlimit="8" fill="#3A414A" fill-rule="evenodd"/><path d="M1994 1062.67C1994 1057.88 1997.88 1054 2002.67 1054L2094.33 1054C2099.12 1054 2103 1057.88 2103 1062.67L2103 1097.33C2103 1102.12 2099.12 1106 2094.33 1106L2002.67 1106C1997.88 1106 1994 1102.12 1994 1097.33Z" stroke="#042433" stroke-width="2.29167" stroke-miterlimit="8" fill="#FFFFFF" fill-rule="evenodd"/><text font-family="Aptos,Aptos_MSFontService,sans-serif" font-weight="400" font-size="37" transform="matrix(1 0 0 1 2010.04 1092)">ens3</text><path d="M2272 1078C2272 1067.51 2280.51 1059 2291 1059L2440 1059C2450.49 1059 2459 1067.51 2459 1078L2459 1154C2459 1164.49 2450.49 1173 2440 1173L2291 1173C2280.51 1173 2272 1164.49 2272 1154Z" stroke="#042433" stroke-width="2.29167" stroke-miterlimit="8" fill="#C00000" fill-rule="evenodd" fill-opacity="0.521569"/><text font-family="Aptos,Aptos_MSFontService,sans-serif" font-weight="700" font-size="37" transform="matrix(1 0 0 1 2310.81 1128)">TMM A</text><path d="M2155 1062.83C2155 1057.95 2158.95 1054 2163.83 1054L2292.17 1054C2297.05 1054 2301 1057.95 2301 1062.83L2301 1098.17C2301 1103.04 2297.05 1107 2292.17 1107L2163.83 1107C2158.95 1107 2155 1103.04 2155 1098.17Z" stroke="#042433" stroke-width="2.29167" stroke-miterlimit="8" fill="#FFFFFF" fill-rule="evenodd"/><text font-family="Aptos,Aptos_MSFontService,sans-serif" font-weight="400" font-size="37" transform="matrix(1 0 0 1 2163.29 1093)">External</text><path d="M2155 1136.83C2155 1131.95 2158.95 1128 2163.83 1128L2292.17 1128C2297.05 1128 2301 1131.95 2301 1136.83L2301 1172.17C2301 1177.04 2297.05 1181 2292.17 1181L2163.83 1181C2158.95 1181 2155 1177.04 2155 1172.17Z" stroke="#042433" stroke-width="2.29167" stroke-miterlimit="8" fill="#FFFFFF" fill-rule="evenodd"/><text font-family="Aptos,Aptos_MSFontService,sans-serif" font-weight="400" font-size="37" transform="matrix(1 0 0 1 2166.72 1167)">Internal</text><path d="M2432 1136.83C2432 1131.95 2435.95 1128 2440.83 1128L2569.17 1128C2574.05 1128 2578 1131.95 2578 1136.83L2578 1172.17C2578 1177.04 2574.05 1181 2569.17 1181L2440.83 1181C2435.95 1181 2432 1177.04 2432 1172.17Z" stroke="#042433" stroke-width="2.29167" stroke-miterlimit="8" fill="#FFFFFF" fill-rule="evenodd"/><text font-family="Aptos,Aptos_MSFontService,sans-serif" font-weight="400" font-size="37" transform="matrix(1 0 0 1 2469.23 1167)">eth0</text><path d="M2155 1246.83C2155 1241.95 2158.95 1238 2163.83 1238L2292.17 1238C2297.05 1238 2301 1241.95 2301 1246.83L2301 1282.17C2301 1287.04 2297.05 1291 2292.17 1291L2163.83 1291C2158.95 1291 2155 1287.04 2155 1282.17Z" stroke="#042433" stroke-width="2.29167" stroke-miterlimit="8" fill="#FFFFFF" fill-rule="evenodd"/><text font-family="Aptos,Aptos_MSFontService,sans-serif" font-weight="400" font-size="37" transform="matrix(1 0 0 1 2157.84 1277)">dummy0</text><path d="M2157 1344.83C2157 1339.95 2160.95 1336 2165.83 1336L2294.17 1336C2299.05 1336 2303 1339.95 2303 1344.83L2303 1380.17C2303 1385.05 2299.05 1389 2294.17 1389L2165.83 1389C2160.95 1389 2157 1385.05 2157 1380.17Z" stroke="#042433" stroke-width="2.29167" stroke-miterlimit="8" fill="#FFFFFF" fill-rule="evenodd"/><text font-family="Aptos,Aptos_MSFontService,sans-serif" font-weight="400" font-size="37" transform="matrix(1 0 0 1 2181.05 1375)">shim0</text><path d="M2155.41 1081.58 2125.91 1081.33 2125.93 1079.04 2155.43 1079.29ZM2130.39 1093.98 2103 1080 2130.61 1066.48Z"/><path d="M1.14583-7.29078e-06 1.14605 33.8019-1.14562 33.8019-1.14583 7.29078e-06ZM13.7502 29.2185 0.000360892 56.7186-13.7498 29.2187Z" transform="matrix(1 0 0 -1 2228 1237.72)"/><path d="M2228.57 1335.73 2227.74 1313.94 2230.03 1313.86 2230.86 1335.64ZM2215.32 1319.01 2228 1291 2242.8 1317.95Z"/><path d="M2638 1079.83C2638 1069.43 2646.43 1061 2656.83 1061L2806.17 1061C2816.57 1061 2825 1069.43 2825 1079.83L2825 1155.17C2825 1165.57 2816.57 1174 2806.17 1174L2656.83 1174C2646.43 1174 2638 1165.57 2638 1155.17Z" stroke="#042433" stroke-width="2.29167" stroke-miterlimit="8" fill="#FFFFFF" fill-rule="evenodd" fill-opacity="0.521569"/><text font-family="Aptos,Aptos_MSFontService,sans-serif" font-weight="700" font-size="37" transform="matrix(1 0 0 1 2682.63 1130)">APP A</text><path d="M2612 1164C2612 1159.03 2616.03 1155 2621 1155L2705 1155C2709.97 1155 2714 1159.03 2714 1164L2714 1200C2714 1204.97 2709.97 1209 2705 1209L2621 1209C2616.03 1209 2612 1204.97 2612 1200Z" stroke="#042433" stroke-width="2.29167" stroke-miterlimit="8" fill="#FFFFFF" fill-rule="evenodd"/><text font-family="Aptos,Aptos_MSFontService,sans-serif" font-weight="400" font-size="37" transform="matrix(1 0 0 1 2627.35 1194)">eth0</text><path d="M2557 1344.83C2557 1339.95 2560.96 1336 2565.83 1336L2766.17 1336C2771.05 1336 2775 1339.95 2775 1344.83L2775 1380.17C2775 1385.05 2771.05 1389 2766.17 1389L2565.83 1389C2560.96 1389 2557 1385.05 2557 1380.17Z" stroke="#042433" stroke-width="2.29167" stroke-miterlimit="8" fill="#FFFFFF" fill-rule="evenodd"/><text font-family="Aptos,Aptos_MSFontService,sans-serif" font-weight="400" font-size="37" transform="matrix(1 0 0 1 2565.19 1375)">Calico App A</text><path d="M2664.15 1208.97 2666.96 1313.25 2664.67 1313.31 2661.85 1209.03ZM2679.44 1308.33 2666.44 1336.19 2651.95 1309.07Z"/><path d="M1849 1381.33C1849 1373.42 1855.42 1367 1863.33 1367L1994.67 1367C2002.58 1367 2009 1373.42 2009 1381.33L2009 1438.67C2009 1446.58 2002.58 1453 1994.67 1453L1863.33 1453C1855.42 1453 1849 1446.58 1849 1438.67Z" stroke="#042433" stroke-width="2.29167" stroke-miterlimit="8" fill="#595959" fill-rule="evenodd"/><text fill="#FFFFFF" font-family="Aptos,Aptos_MSFontService,sans-serif" font-weight="400" font-size="41" transform="matrix(1 0 0 1 1883.13 1423)">VSI B</text><path d="M2277.5 1045C2277.5 1035.34 2285.11 1027.5 2294.5 1027.5 2303.89 1027.5 2311.5 1035.34 2311.5 1045 2311.5 1054.67 2303.89 1062.5 2294.5 1062.5 2285.11 1062.5 2277.5 1054.67 2277.5 1045Z" stroke="#FF0000" stroke-width="6.875" stroke-miterlimit="8" fill="#C00000" fill-rule="evenodd"/><text fill="#C00000" font-family="Aptos,Aptos_MSFontService,sans-serif" font-weight="700" font-size="48" transform="matrix(1 0 0 1 2329.35 1032)">Self IP Next Hop</text><text font-family="Aptos,Aptos_MSFontService,sans-serif" font-weight="700" font-size="28" transform="matrix(1 0 0 1 2054.35 1132)">IPVLAN</text><text font-family="Aptos,Aptos_MSFontService,sans-serif" font-weight="700" font-size="28" transform="matrix(1 0 0 1 2258.31 1219)">MACVLAN</text><text font-family="Aptos,Aptos_MSFontService,sans-serif" font-weight="700" font-size="28" transform="matrix(1 0 0 1 1867.13 1139)">VPC Single</text><text font-family="Aptos,Aptos_MSFontService,sans-serif" font-weight="700" font-size="28" transform="matrix(1 0 0 1 1867.13 1172)">NIC Subnet</text><text font-family="Aptos,Aptos_MSFontService,sans-serif" font-weight="700" font-size="28" transform="matrix(1 0 0 1 1867.13 1205)">Address</text><path d="M1966.5 1078.5C1966.5 1069.11 1974.11 1061.5 1983.5 1061.5 1992.89 1061.5 2000.5 1069.11 2000.5 1078.5 2000.5 1087.89 1992.89 1095.5 1983.5 1095.5 1974.11 1095.5 1966.5 1087.89 1966.5 1078.5Z" stroke="#000000" stroke-width="6.875" stroke-miterlimit="8" fill="#F2F2F2" fill-rule="evenodd"/><path d="M1765.42 1075.06 1943.33 1075.06 1943.33 1081.94 1765.42 1081.94ZM1770 1092.25 1742.5 1078.5 1770 1064.75ZM1938.74 1064.75 1966.24 1078.5 1938.74 1092.25Z"/><text font-family="Aptos,Aptos_MSFontService,sans-serif" font-weight="700" font-size="46" transform="matrix(1 0 0 1 2393.22 1445)">f5</text><text font-family="Aptos,Aptos_MSFontService,sans-serif" font-weight="700" font-size="46" transform="matrix(1 0 0 1 2433.32 1445)">-</text><text font-family="Aptos,Aptos_MSFontService,sans-serif" font-weight="700" font-size="46" transform="matrix(1 0 0 1 2448.79 1445)">tmm</text><path d="M1437.5 1078.5C1437.5 994.553 1505.78 926.5 1590 926.5 1674.22 926.5 1742.5 994.553 1742.5 1078.5 1742.5 1162.45 1674.22 1230.5 1590 1230.5 1505.78 1230.5 1437.5 1162.45 1437.5 1078.5Z" stroke="#042433" stroke-width="6.875" stroke-miterlimit="8" fill="#D9D9D9" fill-rule="evenodd"/><text font-family="Aptos,Aptos_MSFontService,sans-serif" font-weight="400" font-size="64" transform="matrix(1 0 0 1 1529.7 1060)">VPC</text><text font-family="Aptos,Aptos_MSFontService,sans-serif" font-weight="400" font-size="64" transform="matrix(1 0 0 1 1496.63 1137)">Router</text><rect x="1797" y="1581" width="1168" height="626" stroke="#042433" stroke-width="2.29167" stroke-miterlimit="8" fill="#F2F2F2"/><text font-family="Aptos,Aptos_MSFontService,sans-serif" font-weight="400" font-size="55" transform="matrix(1 0 0 1 1832.2 1650)">Zone C</text><path d="M2037 1670.2C2037 1656.83 2047.83 1646 2061.2 1646L2858.8 1646C2872.17 1646 2883 1656.83 2883 1670.2L2883 2127.8C2883 2141.17 2872.17 2152 2858.8 2152L2061.2 2152C2047.83 2152 2037 2141.17 2037 2127.8Z" stroke="#7F7F7F" stroke-width="2.29167" stroke-miterlimit="8" fill="#D9D9D9" fill-rule="evenodd"/><text fill="#595959" font-family="Aptos,Aptos_MSFontService,sans-serif" font-weight="400" font-size="46" transform="matrix(1 0 0 1 2086.58 1704)">Node C</text><path d="M2019.55 1751.08 2018.55 1751.08 2018.55 1750.08 2019.55 1750.08Z" stroke="#3A414A" stroke-width="0.0422244" stroke-miterlimit="8" fill="#3A414A" fill-rule="evenodd"/><path d="M1994 1732.67C1994 1727.88 1997.88 1724 2002.67 1724L2094.33 1724C2099.12 1724 2103 1727.88 2103 1732.67L2103 1767.33C2103 1772.12 2099.12 1776 2094.33 1776L2002.67 1776C1997.88 1776 1994 1772.12 1994 1767.33Z" stroke="#042433" stroke-width="2.29167" stroke-miterlimit="8" fill="#FFFFFF" fill-rule="evenodd"/><text font-family="Aptos,Aptos_MSFontService,sans-serif" font-weight="400" font-size="37" transform="matrix(1 0 0 1 2010.04 1762)">ens3</text><path d="M2272 1747.83C2272 1737.43 2280.43 1729 2290.83 1729L2440.17 1729C2450.57 1729 2459 1737.43 2459 1747.83L2459 1823.17C2459 1833.57 2450.57 1842 2440.17 1842L2290.83 1842C2280.43 1842 2272 1833.57 2272 1823.17Z" stroke="#042433" stroke-width="2.29167" stroke-miterlimit="8" fill="#C00000" fill-rule="evenodd" fill-opacity="0.521569"/><text font-family="Aptos,Aptos_MSFontService,sans-serif" font-weight="700" font-size="37" transform="matrix(1 0 0 1 2310.81 1798)">TMM A</text><path d="M2155 1732.83C2155 1727.95 2158.95 1724 2163.83 1724L2292.17 1724C2297.05 1724 2301 1727.95 2301 1732.83L2301 1768.17C2301 1773.04 2297.05 1777 2292.17 1777L2163.83 1777C2158.95 1777 2155 1773.04 2155 1768.17Z" stroke="#042433" stroke-width="2.29167" stroke-miterlimit="8" fill="#FFFFFF" fill-rule="evenodd"/><text font-family="Aptos,Aptos_MSFontService,sans-serif" font-weight="400" font-size="37" transform="matrix(1 0 0 1 2163.29 1762)">External</text><path d="M2155 1806.83C2155 1801.95 2158.95 1798 2163.83 1798L2292.17 1798C2297.05 1798 2301 1801.95 2301 1806.83L2301 1842.17C2301 1847.05 2297.05 1851 2292.17 1851L2163.83 1851C2158.95 1851 2155 1847.05 2155 1842.17Z" stroke="#042433" stroke-width="2.29167" stroke-miterlimit="8" fill="#FFFFFF" fill-rule="evenodd"/><text font-family="Aptos,Aptos_MSFontService,sans-serif" font-weight="400" font-size="37" transform="matrix(1 0 0 1 2166.72 1836)">Internal</text><path d="M2432 1806.83C2432 1801.95 2435.95 1798 2440.83 1798L2569.17 1798C2574.05 1798 2578 1801.95 2578 1806.83L2578 1842.17C2578 1847.05 2574.05 1851 2569.17 1851L2440.83 1851C2435.95 1851 2432 1847.05 2432 1842.17Z" stroke="#042433" stroke-width="2.29167" stroke-miterlimit="8" fill="#FFFFFF" fill-rule="evenodd"/><text font-family="Aptos,Aptos_MSFontService,sans-serif" font-weight="400" font-size="37" transform="matrix(1 0 0 1 2469.23 1836)">eth0</text><path d="M2155 1916.83C2155 1911.95 2158.95 1908 2163.83 1908L2292.17 1908C2297.05 1908 2301 1911.95 2301 1916.83L2301 1952.17C2301 1957.05 2297.05 1961 2292.17 1961L2163.83 1961C2158.95 1961 2155 1957.05 2155 1952.17Z" stroke="#042433" stroke-width="2.29167" stroke-miterlimit="8" fill="#FFFFFF" fill-rule="evenodd"/><text font-family="Aptos,Aptos_MSFontService,sans-serif" font-weight="400" font-size="37" transform="matrix(1 0 0 1 2157.84 1946)">dummy0</text><path d="M2157 2014.83C2157 2009.95 2160.95 2006 2165.83 2006L2294.17 2006C2299.05 2006 2303 2009.95 2303 2014.83L2303 2050.17C2303 2055.05 2299.05 2059 2294.17 2059L2165.83 2059C2160.95 2059 2157 2055.05 2157 2050.17Z" stroke="#042433" stroke-width="2.29167" stroke-miterlimit="8" fill="#FFFFFF" fill-rule="evenodd"/><text font-family="Aptos,Aptos_MSFontService,sans-serif" font-weight="400" font-size="37" transform="matrix(1 0 0 1 2181.05 2044)">shim0</text><path d="M2155.41 1751.58 2125.91 1751.33 2125.93 1749.04 2155.43 1749.29ZM2130.39 1763.98 2103 1750 2130.61 1736.48Z"/><path d="M1.14583-7.29078e-06 1.14605 33.8019-1.14562 33.8019-1.14583 7.29078e-06ZM13.7502 29.2185 0.000360892 56.7186-13.7498 29.2187Z" transform="matrix(1 0 0 -1 2228 1907.72)"/><path d="M2228.57 2005.73 2227.74 1983.94 2230.03 1983.86 2230.86 2005.64ZM2215.32 1989.01 2228 1961 2242.8 1987.95Z"/><path d="M2638 1749.83C2638 1739.43 2646.43 1731 2656.83 1731L2806.17 1731C2816.57 1731 2825 1739.43 2825 1749.83L2825 1825.17C2825 1835.57 2816.57 1844 2806.17 1844L2656.83 1844C2646.43 1844 2638 1835.57 2638 1825.17Z" stroke="#042433" stroke-width="2.29167" stroke-miterlimit="8" fill="#FFFFFF" fill-rule="evenodd" fill-opacity="0.521569"/><text font-family="Aptos,Aptos_MSFontService,sans-serif" font-weight="700" font-size="37" transform="matrix(1 0 0 1 2682.63 1799)">APP A</text><path d="M2612 1833.83C2612 1828.95 2615.96 1825 2620.83 1825L2705.17 1825C2710.05 1825 2714 1828.95 2714 1833.83L2714 1869.17C2714 1874.05 2710.05 1878 2705.17 1878L2620.83 1878C2615.96 1878 2612 1874.05 2612 1869.17Z" stroke="#042433" stroke-width="2.29167" stroke-miterlimit="8" fill="#FFFFFF" fill-rule="evenodd"/><text font-family="Aptos,Aptos_MSFontService,sans-serif" font-weight="400" font-size="37" transform="matrix(1 0 0 1 2627.35 1864)">eth0</text><path d="M2557 2014.83C2557 2009.95 2560.96 2006 2565.83 2006L2766.17 2006C2771.05 2006 2775 2009.95 2775 2014.83L2775 2050.17C2775 2055.05 2771.05 2059 2766.17 2059L2565.83 2059C2560.96 2059 2557 2055.05 2557 2050.17Z" stroke="#042433" stroke-width="2.29167" stroke-miterlimit="8" fill="#FFFFFF" fill-rule="evenodd"/><text font-family="Aptos,Aptos_MSFontService,sans-serif" font-weight="400" font-size="37" transform="matrix(1 0 0 1 2565.19 2044)">Calico App A</text><path d="M2664.15 1877.97 2666.96 1982.25 2664.67 1982.31 2661.85 1878.03ZM2679.44 1977.33 2666.44 2005.19 2651.95 1978.07Z"/><path d="M1849 2050.33C1849 2042.42 1855.42 2036 1863.33 2036L1994.67 2036C2002.58 2036 2009 2042.42 2009 2050.33L2009 2107.67C2009 2115.58 2002.58 2122 1994.67 2122L1863.33 2122C1855.42 2122 1849 2115.58 1849 2107.67Z" stroke="#042433" stroke-width="2.29167" stroke-miterlimit="8" fill="#595959" fill-rule="evenodd"/><text fill="#FFFFFF" font-family="Aptos,Aptos_MSFontService,sans-serif" font-weight="400" font-size="41" transform="matrix(1 0 0 1 1881.13 2093)">VSI C</text><path d="M2277.5 1714.5C2277.5 1705.11 2285.11 1697.5 2294.5 1697.5 2303.89 1697.5 2311.5 1705.11 2311.5 1714.5 2311.5 1723.89 2303.89 1731.5 2294.5 1731.5 2285.11 1731.5 2277.5 1723.89 2277.5 1714.5Z" stroke="#FF0000" stroke-width="6.875" stroke-miterlimit="8" fill="#C00000" fill-rule="evenodd"/><text fill="#C00000" font-family="Aptos,Aptos_MSFontService,sans-serif" font-weight="700" font-size="48" transform="matrix(1 0 0 1 2329.35 1702)">Self IP Next Hop</text><text font-family="Aptos,Aptos_MSFontService,sans-serif" font-weight="700" font-size="28" transform="matrix(1 0 0 1 2054.35 1802)">IPVLAN</text><text font-family="Aptos,Aptos_MSFontService,sans-serif" font-weight="700" font-size="28" transform="matrix(1 0 0 1 2258.31 1889)">MACVLAN</text><text font-family="Aptos,Aptos_MSFontService,sans-serif" font-weight="700" font-size="28" transform="matrix(1 0 0 1 1867.13 1809)">VPC Single</text><text font-family="Aptos,Aptos_MSFontService,sans-serif" font-weight="700" font-size="28" transform="matrix(1 0 0 1 1867.13 1842)">NIC Subnet</text><text font-family="Aptos,Aptos_MSFontService,sans-serif" font-weight="700" font-size="28" transform="matrix(1 0 0 1 1867.13 1875)">Address</text><path d="M1966.5 1748C1966.5 1738.33 1974.11 1730.5 1983.5 1730.5 1992.89 1730.5 2000.5 1738.33 2000.5 1748 2000.5 1757.66 1992.89 1765.5 1983.5 1765.5 1974.11 1765.5 1966.5 1757.66 1966.5 1748Z" stroke="#000000" stroke-width="6.875" stroke-miterlimit="8" fill="#F2F2F2" fill-rule="evenodd"/><path d="M1765.42 1745.06 1943.33 1745.06 1943.33 1751.94 1765.42 1751.94ZM1770 1762.25 1742.5 1748.5 1770 1734.75ZM1938.74 1734.75 1966.24 1748.5 1938.74 1762.25Z"/><text font-family="Aptos,Aptos_MSFontService,sans-serif" font-weight="700" font-size="46" transform="matrix(1 0 0 1 2393.22 2115)">f5</text><text font-family="Aptos,Aptos_MSFontService,sans-serif" font-weight="700" font-size="46" transform="matrix(1 0 0 1 2433.32 2115)">-</text><text font-family="Aptos,Aptos_MSFontService,sans-serif" font-weight="700" font-size="46" transform="matrix(1 0 0 1 2448.79 2115)">tmm</text><path d="M1437.5 1748C1437.5 1663.78 1505.78 1595.5 1590 1595.5 1674.22 1595.5 1742.5 1663.78 1742.5 1748 1742.5 1832.22 1674.22 1900.5 1590 1900.5 1505.78 1900.5 1437.5 1832.22 1437.5 1748Z" stroke="#042433" stroke-width="6.875" stroke-miterlimit="8" fill="#D9D9D9" fill-rule="evenodd"/><text font-family="Aptos,Aptos_MSFontService,sans-serif" font-weight="400" font-size="64" transform="matrix(1 0 0 1 1529.7 1730)">VPC</text><text font-family="Aptos,Aptos_MSFontService,sans-serif" font-weight="400" font-size="64" transform="matrix(1 0 0 1 1496.63 1807)">Router</text><path d="M0 6.30208-82.5017 6.30208-76.1996 0-76.1996 353.32-82.5023 347.018 401.071 346.976 401.072 359.58-88.8038 359.623-88.8038-6.30208 0-6.30208ZM394.642 334.415 432.581 353.066 394.897 372.226Z" fill="#E97132" transform="matrix(1 -1.22465e-16 -1.22465e-16 -1 1849.5 740.566)"/><path d="M1849.5 746.802 1767 746.802 1773.3 740.5 1773.3 1044.81 1767 1038.51 2245.52 1038.51 2245.52 1051.11 1760.7 1051.11 1760.7 734.198 1849.5 734.198ZM2239.22 1025.9 2277.03 1044.81 2239.22 1063.72Z" fill="#E97132"/><path d="M1849.5 746.802 1767 746.802 1773.3 740.5 1773.3 1714.37 1767 1708.07 2245.52 1708.07 2245.52 1720.68 1760.7 1720.68 1760.7 734.198 1849.5 734.198ZM2239.22 1695.47 2277.03 1714.37 2239.22 1733.28Z" fill="#E97132"/></g></svg>