<svg width="3061" height="2294" xmlns="http://www.w3.org/2000/svg" xmlns:xlink="http://www.w3.org/1999/xlink" xml:space="preserve" overflow="hidden"><g transform="translate(-564 -61)"><path d="M2305.5 283.839C2305.5 162.701 2403.7 64.5001 2524.84 64.5001L3402.16 64.5001C3523.3 64.5001 3621.5 162.701 3621.5 283.839L3621.5 2132.16C3621.5 2253.3 3523.3 2351.5 3402.16 2351.5L2524.84 2351.5C2403.7 2351.5 2305.5 2253.3 2305.5 2132.16Z" stroke="#4E95D9" stroke-width="6.875" stroke-miterlimit="8" stroke-dasharray="27.5 20.625" fill="#FFFFFF" fill-rule="evenodd"/><rect x="2749" y="242" width="691" height="625" stroke="#BFBFBF" stroke-width="2.29167" stroke-miterlimit="8" fill="#F2F2F2"/><text fill="#7F7F7F" font-family="Aptos,Aptos_MSFontService,sans-serif" font-weight="400" font-size="55" transform="matrix(1 0 0 1 2783.94 310)">Zone A</text><path d="M2717.42 406.062 2947.88 406.063 2947.88 412.938 2717.42 412.937ZM2722 423.25 2694.5 409.5 2722 395.75ZM2943.3 395.75 2970.8 409.5 2943.3 423.25Z" fill="#AEAEAE"/><path d="M2389.5 409C2389.5 324.776 2457.78 256.5 2542 256.5 2626.22 256.5 2694.5 324.776 2694.5 409 2694.5 493.223 2626.22 561.5 2542 561.5 2457.78 561.5 2389.5 493.223 2389.5 409Z" stroke="#D9D9D9" stroke-width="6.875" stroke-miterlimit="8" fill="#FFFFFF" fill-rule="evenodd"/><text fill="#D9D9D9" font-family="Aptos,Aptos_MSFontService,sans-serif" font-weight="400" font-size="64" transform="matrix(1 0 0 1 2481.44 391)">VPC</text><text fill="#D9D9D9" font-family="Aptos,Aptos_MSFontService,sans-serif" font-weight="400" font-size="64" transform="matrix(1 0 0 1 2448.37 468)">Router</text><rect x="2749" y="911" width="693" height="626" stroke="#BFBFBF" stroke-width="2.29167" stroke-miterlimit="8" fill="#F2F2F2"/><text fill="#7F7F7F" font-family="Aptos,Aptos_MSFontService,sans-serif" font-weight="400" font-size="55" transform="matrix(1 0 0 1 2783.94 980)">Zone B</text><path d="M2717.42 1075.06 2945.49 1075.06 2945.49 1081.94 2717.42 1081.94ZM2722 1092.25 2694.5 1078.5 2722 1064.75ZM2940.9 1064.75 2968.4 1078.5 2940.9 1092.25Z" fill="#AEAEAE"/><path d="M2389.5 1078.5C2389.5 994.553 2457.78 926.5 2542 926.5 2626.22 926.5 2694.5 994.553 2694.5 1078.5 2694.5 1162.45 2626.22 1230.5 2542 1230.5 2457.78 1230.5 2389.5 1162.45 2389.5 1078.5Z" stroke="#D9D9D9" stroke-width="6.875" stroke-miterlimit="8" fill="#FFFFFF" fill-rule="evenodd"/><text fill="#D9D9D9" font-family="Aptos,Aptos_MSFontService,sans-serif" font-weight="400" font-size="64" transform="matrix(1 0 0 1 2481.44 1060)">VPC</text><text fill="#D9D9D9" font-family="Aptos,Aptos_MSFontService,sans-serif" font-weight="400" font-size="64" transform="matrix(1 0 0 1 2448.37 1137)">Router</text><rect x="2749" y="1581" width="695" height="626" stroke="#BFBFBF" stroke-width="2.29167" stroke-miterlimit="8" fill="#F2F2F2"/><text fill="#7F7F7F" font-family="Aptos,Aptos_MSFontService,sans-serif" font-weight="400" font-size="55" transform="matrix(1 0 0 1 2783.94 1650)">Zone C</text><path d="M2717.42 1745.06 2945.49 1745.06 2945.49 1751.94 2717.42 1751.94ZM2722 1762.25 2694.5 1748.5 2722 1734.75ZM2940.9 1734.75 2968.4 1748.5 2940.9 1762.25Z" fill="#AEAEAE"/><path d="M2389.5 1748C2389.5 1663.78 2457.78 1595.5 2542 1595.5 2626.22 1595.5 2694.5 1663.78 2694.5 1748 2694.5 1832.22 2626.22 1900.5 2542 1900.5 2457.78 1900.5 2389.5 1832.22 2389.5 1748Z" stroke="#D9D9D9" stroke-width="6.875" stroke-miterlimit="8" fill="#FFFFFF" fill-rule="evenodd"/><text fill="#D9D9D9" font-family="Aptos,Aptos_MSFontService,sans-serif" font-weight="400" font-size="64" transform="matrix(1 0 0 1 2481.44 1730)">VPC</text><text fill="#D9D9D9" font-family="Aptos,Aptos_MSFontService,sans-serif" font-weight="400" font-size="64" transform="matrix(1 0 0 1 2448.37 1807)">Router</text><path d="M1896.5 1073.5C1896.5 982.373 1970.37 908.5 2061.5 908.5 2152.63 908.5 2226.5 982.373 2226.5 1073.5 2226.5 1164.63 2152.63 1238.5 2061.5 1238.5 1970.37 1238.5 1896.5 1164.63 1896.5 1073.5Z" stroke="#A02B93" stroke-width="6.875" stroke-miterlimit="8" stroke-dasharray="27.5 20.625" fill="#FFFFFF" fill-rule="evenodd"/><text fill="#A02B93" font-family="Aptos,Aptos_MSFontService,sans-serif" font-weight="700" font-size="64" transform="matrix(1 0 0 1 1993.06 1093)">TGW</text><path d="M3.20753-1.23618 205.903 524.699 199.488 527.172-3.20753 1.23618ZM213.877 516.714 210.936 547.319 188.217 526.603Z" fill="#AEAEAE" transform="matrix(1 0 0 -1 2178.5 956.818)"/><path d="M2226.62 1070.06 2366.32 1074.85 2366.09 1081.72 2226.38 1076.94ZM2362.1 1064.39 2389.11 1079.07 2361.15 1091.87Z" fill="#AEAEAE"/><path d="M2181.72 1188.29 2384.55 1725.31 2378.12 1727.74 2175.28 1190.71ZM2392.58 1717.38 2389.44 1747.97 2366.86 1727.1Z" fill="#AEAEAE"/><path d="M1542.51 1069.06 1873.4 1069.58 1873.39 1076.45 1542.49 1075.94ZM1868.83 1059.26 1896.31 1073.05 1868.79 1086.76Z" fill="#AEAEAE"/><path d="M1102.5 855.377C1102.5 837.22 1117.22 822.5 1135.38 822.5L1509.62 822.5C1527.78 822.5 1542.5 837.22 1542.5 855.377L1542.5 1289.62C1542.5 1307.78 1527.78 1322.5 1509.62 1322.5L1135.38 1322.5C1117.22 1322.5 1102.5 1307.78 1102.5 1289.62Z" stroke="#00B050" stroke-width="6.875" stroke-miterlimit="8" stroke-dasharray="27.5 20.625" fill="#FFFFFF" fill-rule="evenodd"/><text fill="#4EA72E" font-family="Aptos,Aptos_MSFontService,sans-serif" font-weight="700" font-size="50" transform="matrix(1 0 0 1 1203.44 896)">Client </text><text fill="#4EA72E" font-family="Aptos,Aptos_MSFontService,sans-serif" font-weight="700" font-size="50" transform="matrix(1 0 0 1 1352.97 896)">VPC</text><path d="M1230.5 1030.83C1230.5 1014.08 1244.08 1000.5 1260.83 1000.5L1384.17 1000.5C1400.92 1000.5 1414.5 1014.08 1414.5 1030.83L1414.5 1152.17C1414.5 1168.92 1400.92 1182.5 1384.17 1182.5L1260.83 1182.5C1244.08 1182.5 1230.5 1168.92 1230.5 1152.17Z" stroke="#E97132" stroke-width="6.875" stroke-miterlimit="8" fill="#FFFFFF" fill-rule="evenodd"/><g><g><g><path d="M1316.66 1073.69C1321.55 1074.56 1326.35 1075.89 1331 1077.65 1331.88 1078 1332.88 1077.58 1333.24 1076.7 1333.59 1075.82 1333.17 1074.81 1332.28 1074.46 1332.26 1074.45 1332.24 1074.44 1332.22 1074.43 1328.28 1072.94 1324.25 1071.75 1320.14 1070.86 1327.83 1062.82 1331.98 1052.05 1331.68 1040.93 1331.68 1022.84 1321.59 1012.46 1303.99 1012.46 1286.4 1012.46 1276.31 1022.84 1276.31 1040.93 1276.01 1052.05 1280.16 1062.82 1287.84 1070.86 1279.52 1072.61 1271.52 1075.66 1264.15 1079.91 1260.37 1082.26 1257.6 1085.93 1256.37 1090.2L1247.27 1130.75C1247.05 1131.68 1247.63 1132.6 1248.56 1132.82 1248.56 1132.82 1248.56 1132.82 1248.57 1132.82 1248.69 1132.85 1248.82 1132.86 1248.95 1132.86 1249.75 1132.86 1250.45 1132.3 1250.62 1131.51L1259.7 1091.06C1260.71 1087.64 1262.94 1084.71 1265.96 1082.84 1273.81 1078.37 1282.36 1075.28 1291.25 1073.69 1298.75 1079.42 1309.16 1079.42 1316.66 1073.69ZM1279.75 1040.92C1279.75 1019.14 1294.94 1015.89 1303.99 1015.89 1313.05 1015.89 1328.24 1019.14 1328.24 1040.92 1328.24 1053.31 1323.3 1064.61 1315.34 1070.45L1315.29 1070.49C1308.74 1075.92 1299.24 1075.92 1292.68 1070.49L1292.68 1070.49C1284.7 1064.64 1279.75 1053.32 1279.75 1040.92Z" stroke="#E97132" stroke-width="3.44"/><path d="M1348.43 1068.02 1348.43 1068.02C1350.47 1069.64 1352.99 1070.55 1355.6 1070.61 1357.92 1070.56 1360.18 1069.81 1362.07 1068.47 1366.29 1069.27 1370.34 1070.78 1374.07 1072.91 1375.37 1073.73 1376.33 1074.99 1376.78 1076.45L1377.89 1082.09C1378.05 1082.89 1378.75 1083.47 1379.57 1083.47 1379.69 1083.47 1379.8 1083.46 1379.91 1083.44 1380.85 1083.26 1381.47 1082.37 1381.29 1081.43 1381.29 1081.43 1381.29 1081.42 1381.29 1081.42L1380.16 1075.64C1379.49 1073.3 1377.99 1071.29 1375.94 1069.99 1372.61 1068.04 1369.02 1066.57 1365.27 1065.63 1368.61 1061.46 1370.39 1056.26 1370.29 1050.93 1370.29 1041.21 1364.95 1035.64 1355.64 1035.64 1346.32 1035.64 1340.98 1041.21 1340.98 1050.93 1340.71 1057.46 1343.46 1063.76 1348.43 1068.02ZM1355.6 1039.1C1360.72 1039.1 1366.82 1041.16 1366.82 1050.95 1367.08 1056.4 1364.83 1061.67 1360.72 1065.26 1357.78 1067.8 1353.43 1067.8 1350.49 1065.26L1350.49 1065.26C1346.38 1061.67 1344.13 1056.4 1344.39 1050.95 1344.39 1041.15 1350.49 1039.1 1355.6 1039.1Z" stroke="#E97132" stroke-width="3.44"/><path d="M1347.04 1156.55 1330.37 1156.55C1329.42 1156.55 1328.65 1157.32 1328.65 1158.27 1328.65 1159.22 1329.42 1159.99 1330.37 1159.99L1347.04 1159.99C1347.99 1159.99 1348.76 1159.22 1348.76 1158.27 1348.76 1157.32 1347.99 1156.55 1347.04 1156.55Z" stroke="#E97132" stroke-width="3.44"/><path d="M1396 1151.87 1396 1091.59C1396 1090.64 1395.23 1089.87 1394.28 1089.87L1283.14 1089.87C1282.19 1089.87 1281.42 1090.64 1281.42 1091.59L1281.42 1151.87C1279.58 1153.48 1278.56 1155.83 1278.64 1158.27 1278.52 1161.11 1279.92 1163.8 1282.31 1165.34 1282.56 1165.48 1282.85 1165.55 1283.14 1165.55L1394.28 1165.55C1394.57 1165.55 1394.85 1165.48 1395.11 1165.34 1397.5 1163.8 1398.9 1161.11 1398.78 1158.27 1398.86 1155.83 1397.84 1153.48 1396 1151.87ZM1392.56 1093.31 1392.56 1150.99 1284.86 1150.99 1284.86 1093.31ZM1393.73 1162.11 1283.68 1162.11C1281.56 1160.01 1281.54 1156.59 1283.65 1154.47 1283.66 1154.46 1283.67 1154.44 1283.68 1154.43L1393.73 1154.43C1395.85 1156.53 1395.87 1159.94 1393.78 1162.07 1393.76 1162.08 1393.75 1162.1 1393.73 1162.11Z" stroke="#E97132" stroke-width="3.44"/><path d="M1326.51 1135.2C1326.78 1135.36 1327.08 1135.44 1327.39 1135.44 1328.34 1135.44 1329.11 1134.67 1329.11 1133.72 1329.11 1133.12 1328.8 1132.55 1328.28 1132.24L1311.89 1122.45 1328.28 1112.65C1329.11 1112.19 1329.42 1111.15 1328.96 1110.31 1328.5 1109.48 1327.45 1109.18 1326.62 1109.64 1326.58 1109.66 1326.55 1109.68 1326.51 1109.7L1307.66 1120.99C1306.84 1121.48 1306.58 1122.54 1307.07 1123.35 1307.21 1123.59 1307.42 1123.8 1307.66 1123.94Z" stroke="#E97132" stroke-width="3.44"/><path d="M1348.54 1134.6C1348.85 1135.12 1349.42 1135.44 1350.02 1135.44 1350.33 1135.44 1350.64 1135.36 1350.9 1135.2L1369.76 1123.92C1370.57 1123.43 1370.83 1122.38 1370.34 1121.56 1370.2 1121.32 1370 1121.12 1369.76 1120.97L1350.9 1109.7C1350.11 1109.17 1349.04 1109.39 1348.52 1110.18 1347.99 1110.97 1348.2 1112.04 1348.99 1112.56 1349.04 1112.59 1349.09 1112.62 1349.14 1112.65L1365.52 1122.45 1349.14 1132.24C1348.33 1132.73 1348.06 1133.78 1348.54 1134.6 1348.54 1134.6 1348.54 1134.6 1348.54 1134.6Z" stroke="#E97132" stroke-width="3.44"/><path d="M1334.39 1135.35C1334.57 1135.41 1334.75 1135.44 1334.94 1135.44 1335.68 1135.44 1336.33 1134.97 1336.57 1134.26L1344.11 1111.7C1344.44 1110.81 1343.99 1109.82 1343.1 1109.49 1342.21 1109.15 1341.22 1109.6 1340.89 1110.49 1340.87 1110.53 1340.86 1110.58 1340.85 1110.62L1333.32 1133.18C1333.02 1134.07 1333.5 1135.05 1334.39 1135.35Z" stroke="#E97132" stroke-width="3.44"/></g></g></g><text fill="#4E95D9" font-family="Aptos,Aptos_MSFontService,sans-serif" font-weight="700" font-size="83" transform="matrix(1 0 0 1 2634.44 180)">IBM ROKs Cluster</text><text fill="#E97132" font-family="Aptos,Aptos_MSFontService,sans-serif" font-weight="700" font-size="50" transform="matrix(1 0 0 1 1144.46 1254)">Client Jumphost</text><path d="M2969.5 392.667C2969.5 353.362 3001.36 321.5 3040.67 321.5L3325.33 321.5C3364.64 321.5 3396.5 353.362 3396.5 392.667L3396.5 2083.33C3396.5 2122.64 3364.64 2154.5 3325.33 2154.5L3040.67 2154.5C3001.36 2154.5 2969.5 2122.64 2969.5 2083.33Z" stroke="#C00000" stroke-width="6.875" stroke-miterlimit="8" stroke-dasharray="27.5 20.625" fill="#C00000" fill-rule="evenodd" fill-opacity="0.529412"/><text fill="#FFFFFF" font-family="Aptos,Aptos_MSFontService,sans-serif" font-weight="700" font-size="83" transform="matrix(1 0 0 1 3101.26 1264)">BNK</text><rect x="1932" y="124" width="536" height="100" fill="#FFFFFF"/><text fill="#4E95D9" font-family="Courier New,Courier New_MSFontService,sans-serif" font-weight="700" font-size="55" transform="matrix(1 0 0 1 1964.8 189)">create_cluster</text><rect x="564" y="913" width="637" height="100" fill="#FFFFFF"/><text fill="#00B050" font-family="Courier New,Courier New_MSFontService,sans-serif" font-weight="700" font-size="55" transform="matrix(1 0 0 1 597.348 978)">create_client_vpc</text><rect x="784" y="1279" width="570" height="100" fill="#FFFFFF"/><text fill="#E97132" font-family="Courier New,Courier New_MSFontService,sans-serif" font-weight="700" font-size="55" transform="matrix(1 0 0 1 817.348 1344)">create_jumphost</text><rect x="1650" y="1138" width="805" height="99.9996" fill="#FFFFFF"/><text fill="#A02B93" font-family="Courier New,Courier New_MSFontService,sans-serif" font-weight="700" font-size="55" transform="matrix(1 0 0 1 1683 1202)">create_transit_gateway</text><rect x="1686" y="206" width="704" height="100" fill="#FFFFFF"/><text fill="#4E95D9" font-family="Courier New,Courier New_MSFontService,sans-serif" font-weight="700" font-size="55" transform="matrix(1 0 0 1 1718.87 270)">create_cos_instance</text><text fill="#FFFFFF" font-family="Courier New,Courier New_MSFontService,sans-serif" font-weight="700" font-size="55" transform="matrix(1 0 0 1 3019.74 1448)">deploy_bnk</text></g></svg>